solid CATIA STL
  facet normal  0.000000e+000  -0.000000e+000  1.000000e+000
    outer loop
      vertex -2.863979e+000  1.523311e+001  8.000000e+000
      vertex  1.919500e+000  1.487668e+001  8.000000e+000
      vertex  1.983484e+000  1.537257e+001  8.000000e+000
    endloop
  endfacet
  facet normal  -0.000000e+000  0.000000e+000  1.000000e+000
    outer loop
      vertex  1.983484e+000  1.537257e+001  8.000000e+000
      vertex  1.919500e+000  1.487668e+001  8.000000e+000
      vertex  6.636789e+000  1.400725e+001  8.000000e+000
    endloop
  endfacet
  facet normal  0.000000e+000  0.000000e+000  1.000000e+000
    outer loop
      vertex  6.636789e+000  1.400725e+001  8.000000e+000
      vertex  1.919500e+000  1.487668e+001  8.000000e+000
      vertex  6.422699e+000  1.355540e+001  8.000000e+000
    endloop
  endfacet
  facet normal  -0.000000e+000  0.000000e+000  1.000000e+000
    outer loop
      vertex  6.636789e+000  1.400725e+001  8.000000e+000
      vertex  6.422699e+000  1.355540e+001  8.000000e+000
      vertex  1.064044e+001  1.127081e+001  8.000000e+000
    endloop
  endfacet
  facet normal  0.000000e+000  0.000000e+000  1.000000e+000
    outer loop
      vertex  1.064044e+001  1.127081e+001  8.000000e+000
      vertex  6.422699e+000  1.355540e+001  8.000000e+000
      vertex  1.029720e+001  1.090723e+001  8.000000e+000
    endloop
  endfacet
  facet normal  -0.000000e+000  0.000000e+000  1.000000e+000
    outer loop
      vertex  1.064044e+001  1.127081e+001  8.000000e+000
      vertex  1.029720e+001  1.090723e+001  8.000000e+000
      vertex  1.360253e+001  7.431096e+000  8.000000e+000
    endloop
  endfacet
  facet normal  0.000000e+000  0.000000e+000  1.000000e+000
    outer loop
      vertex  1.360253e+001  7.431096e+000  8.000000e+000
      vertex  1.029720e+001  1.090723e+001  8.000000e+000
      vertex  1.316374e+001  7.191383e+000  8.000000e+000
    endloop
  endfacet
  facet normal  -0.000000e+000  0.000000e+000  1.000000e+000
    outer loop
      vertex  1.360253e+001  7.431096e+000  8.000000e+000
      vertex  1.316374e+001  7.191383e+000  8.000000e+000
      vertex  1.523311e+001  2.863979e+000  8.000000e+000
    endloop
  endfacet
  facet normal  0.000000e+000  0.000000e+000  1.000000e+000
    outer loop
      vertex  1.523311e+001  2.863979e+000  8.000000e+000
      vertex  1.316374e+001  7.191383e+000  8.000000e+000
      vertex  1.474172e+001  2.771593e+000  8.000000e+000
    endloop
  endfacet
  facet normal  -0.000000e+000  0.000000e+000  1.000000e+000
    outer loop
      vertex  1.523311e+001  2.863979e+000  8.000000e+000
      vertex  1.474172e+001  2.771593e+000  8.000000e+000
      vertex  1.537257e+001 -1.983484e+000  8.000000e+000
    endloop
  endfacet
  facet normal  0.000000e+000  0.000000e+000  1.000000e+000
    outer loop
      vertex  1.537257e+001 -1.983484e+000  8.000000e+000
      vertex  1.474172e+001  2.771593e+000  8.000000e+000
      vertex  1.487668e+001 -1.919500e+000  8.000000e+000
    endloop
  endfacet
  facet normal  0.000000e+000  0.000000e+000  1.000000e+000
    outer loop
      vertex  1.537257e+001 -1.983484e+000  8.000000e+000
      vertex  1.487668e+001 -1.919500e+000  8.000000e+000
      vertex  1.400725e+001 -6.636789e+000  8.000000e+000
    endloop
  endfacet
  facet normal  0.000000e+000  -0.000000e+000  1.000000e+000
    outer loop
      vertex  1.400725e+001 -6.636789e+000  8.000000e+000
      vertex  1.487668e+001 -1.919500e+000  8.000000e+000
      vertex  1.355540e+001 -6.422699e+000  8.000000e+000
    endloop
  endfacet
  facet normal  0.000000e+000  0.000000e+000  1.000000e+000
    outer loop
      vertex  1.400725e+001 -6.636789e+000  8.000000e+000
      vertex  1.355540e+001 -6.422699e+000  8.000000e+000
      vertex  1.127081e+001 -1.064044e+001  8.000000e+000
    endloop
  endfacet
  facet normal  0.000000e+000  -0.000000e+000  1.000000e+000
    outer loop
      vertex  1.127081e+001 -1.064044e+001  8.000000e+000
      vertex  1.355540e+001 -6.422699e+000  8.000000e+000
      vertex  1.090723e+001 -1.029720e+001  8.000000e+000
    endloop
  endfacet
  facet normal  0.000000e+000  0.000000e+000  1.000000e+000
    outer loop
      vertex  1.127081e+001 -1.064044e+001  8.000000e+000
      vertex  1.090723e+001 -1.029720e+001  8.000000e+000
      vertex  7.431096e+000 -1.360253e+001  8.000000e+000
    endloop
  endfacet
  facet normal  0.000000e+000  -0.000000e+000  1.000000e+000
    outer loop
      vertex  7.431096e+000 -1.360253e+001  8.000000e+000
      vertex  1.090723e+001 -1.029720e+001  8.000000e+000
      vertex  7.191383e+000 -1.316374e+001  8.000000e+000
    endloop
  endfacet
  facet normal  0.000000e+000  0.000000e+000  1.000000e+000
    outer loop
      vertex  7.431096e+000 -1.360253e+001  8.000000e+000
      vertex  7.191383e+000 -1.316374e+001  8.000000e+000
      vertex  2.863979e+000 -1.523311e+001  8.000000e+000
    endloop
  endfacet
  facet normal  0.000000e+000  -0.000000e+000  1.000000e+000
    outer loop
      vertex  2.863979e+000 -1.523311e+001  8.000000e+000
      vertex  7.191383e+000 -1.316374e+001  8.000000e+000
      vertex  2.771593e+000 -1.474172e+001  8.000000e+000
    endloop
  endfacet
  facet normal  0.000000e+000  0.000000e+000  1.000000e+000
    outer loop
      vertex  2.863979e+000 -1.523311e+001  8.000000e+000
      vertex  2.771593e+000 -1.474172e+001  8.000000e+000
      vertex -1.983484e+000 -1.537257e+001  8.000000e+000
    endloop
  endfacet
  facet normal  0.000000e+000  0.000000e+000  1.000000e+000
    outer loop
      vertex -1.983484e+000 -1.537257e+001  8.000000e+000
      vertex  2.771593e+000 -1.474172e+001  8.000000e+000
      vertex -1.919500e+000 -1.487668e+001  8.000000e+000
    endloop
  endfacet
  facet normal  0.000000e+000  0.000000e+000  1.000000e+000
    outer loop
      vertex -1.983484e+000 -1.537257e+001  8.000000e+000
      vertex -1.919500e+000 -1.487668e+001  8.000000e+000
      vertex -6.636789e+000 -1.400725e+001  8.000000e+000
    endloop
  endfacet
  facet normal  -0.000000e+000  0.000000e+000  1.000000e+000
    outer loop
      vertex -6.636789e+000 -1.400725e+001  8.000000e+000
      vertex -1.919500e+000 -1.487668e+001  8.000000e+000
      vertex -6.422699e+000 -1.355540e+001  8.000000e+000
    endloop
  endfacet
  facet normal  0.000000e+000  0.000000e+000  1.000000e+000
    outer loop
      vertex -6.636789e+000 -1.400725e+001  8.000000e+000
      vertex -6.422699e+000 -1.355540e+001  8.000000e+000
      vertex -1.064044e+001 -1.127081e+001  8.000000e+000
    endloop
  endfacet
  facet normal  -0.000000e+000  0.000000e+000  1.000000e+000
    outer loop
      vertex -1.064044e+001 -1.127081e+001  8.000000e+000
      vertex -6.422699e+000 -1.355540e+001  8.000000e+000
      vertex -1.029720e+001 -1.090723e+001  8.000000e+000
    endloop
  endfacet
  facet normal  0.000000e+000  0.000000e+000  1.000000e+000
    outer loop
      vertex -1.064044e+001 -1.127081e+001  8.000000e+000
      vertex -1.029720e+001 -1.090723e+001  8.000000e+000
      vertex -1.360253e+001 -7.431096e+000  8.000000e+000
    endloop
  endfacet
  facet normal  -0.000000e+000  0.000000e+000  1.000000e+000
    outer loop
      vertex -1.360253e+001 -7.431096e+000  8.000000e+000
      vertex -1.029720e+001 -1.090723e+001  8.000000e+000
      vertex -1.316374e+001 -7.191383e+000  8.000000e+000
    endloop
  endfacet
  facet normal  0.000000e+000  0.000000e+000  1.000000e+000
    outer loop
      vertex -1.360253e+001 -7.431096e+000  8.000000e+000
      vertex -1.316374e+001 -7.191383e+000  8.000000e+000
      vertex -1.523311e+001 -2.863979e+000  8.000000e+000
    endloop
  endfacet
  facet normal  -0.000000e+000  0.000000e+000  1.000000e+000
    outer loop
      vertex -1.523311e+001 -2.863979e+000  8.000000e+000
      vertex -1.316374e+001 -7.191383e+000  8.000000e+000
      vertex -1.474172e+001 -2.771593e+000  8.000000e+000
    endloop
  endfacet
  facet normal  0.000000e+000  0.000000e+000  1.000000e+000
    outer loop
      vertex -1.523311e+001 -2.863979e+000  8.000000e+000
      vertex -1.474172e+001 -2.771593e+000  8.000000e+000
      vertex -1.537257e+001  1.983484e+000  8.000000e+000
    endloop
  endfacet
  facet normal  0.000000e+000  0.000000e+000  1.000000e+000
    outer loop
      vertex -1.537257e+001  1.983484e+000  8.000000e+000
      vertex -1.474172e+001 -2.771593e+000  8.000000e+000
      vertex -1.487668e+001  1.919500e+000  8.000000e+000
    endloop
  endfacet
  facet normal  0.000000e+000  -0.000000e+000  1.000000e+000
    outer loop
      vertex -1.537257e+001  1.983484e+000  8.000000e+000
      vertex -1.487668e+001  1.919500e+000  8.000000e+000
      vertex -1.400725e+001  6.636789e+000  8.000000e+000
    endloop
  endfacet
  facet normal  0.000000e+000  0.000000e+000  1.000000e+000
    outer loop
      vertex -1.400725e+001  6.636789e+000  8.000000e+000
      vertex -1.487668e+001  1.919500e+000  8.000000e+000
      vertex -1.355540e+001  6.422699e+000  8.000000e+000
    endloop
  endfacet
  facet normal  0.000000e+000  -0.000000e+000  1.000000e+000
    outer loop
      vertex -1.400725e+001  6.636789e+000  8.000000e+000
      vertex -1.355540e+001  6.422699e+000  8.000000e+000
      vertex -1.127081e+001  1.064044e+001  8.000000e+000
    endloop
  endfacet
  facet normal  0.000000e+000  0.000000e+000  1.000000e+000
    outer loop
      vertex -1.127081e+001  1.064044e+001  8.000000e+000
      vertex -1.355540e+001  6.422699e+000  8.000000e+000
      vertex -1.090723e+001  1.029720e+001  8.000000e+000
    endloop
  endfacet
  facet normal  0.000000e+000  -0.000000e+000  1.000000e+000
    outer loop
      vertex -1.127081e+001  1.064044e+001  8.000000e+000
      vertex -1.090723e+001  1.029720e+001  8.000000e+000
      vertex -7.431096e+000  1.360253e+001  8.000000e+000
    endloop
  endfacet
  facet normal  0.000000e+000  0.000000e+000  1.000000e+000
    outer loop
      vertex -7.431096e+000  1.360253e+001  8.000000e+000
      vertex -1.090723e+001  1.029720e+001  8.000000e+000
      vertex -7.191383e+000  1.316374e+001  8.000000e+000
    endloop
  endfacet
  facet normal  0.000000e+000  -0.000000e+000  1.000000e+000
    outer loop
      vertex -7.431096e+000  1.360253e+001  8.000000e+000
      vertex -7.191383e+000  1.316374e+001  8.000000e+000
      vertex -2.863979e+000  1.523311e+001  8.000000e+000
    endloop
  endfacet
  facet normal  0.000000e+000  0.000000e+000  1.000000e+000
    outer loop
      vertex -2.863979e+000  1.523311e+001  8.000000e+000
      vertex -7.191383e+000  1.316374e+001  8.000000e+000
      vertex -2.771593e+000  1.474172e+001  8.000000e+000
    endloop
  endfacet
  facet normal  0.000000e+000  -0.000000e+000  1.000000e+000
    outer loop
      vertex -2.863979e+000  1.523311e+001  8.000000e+000
      vertex -2.771593e+000  1.474172e+001  8.000000e+000
      vertex  1.919500e+000  1.487668e+001  8.000000e+000
    endloop
  endfacet
  facet normal  -0.000000e+000  0.000000e+000  1.000000e+000
    outer loop
      vertex  1.919500e+000  1.487668e+001  0.000000e+000
      vertex -2.771593e+000  1.474172e+001  0.000000e+000
      vertex  6.422699e+000  1.355540e+001  0.000000e+000
    endloop
  endfacet
  facet normal  0.000000e+000  0.000000e+000  1.000000e+000
    outer loop
      vertex  6.422699e+000  1.355540e+001  0.000000e+000
      vertex -2.771593e+000  1.474172e+001  0.000000e+000
      vertex -7.191383e+000  1.316374e+001  0.000000e+000
    endloop
  endfacet
  facet normal  -0.000000e+000  0.000000e+000  1.000000e+000
    outer loop
      vertex  6.422699e+000  1.355540e+001  0.000000e+000
      vertex -7.191383e+000  1.316374e+001  0.000000e+000
      vertex  1.029720e+001  1.090723e+001  0.000000e+000
    endloop
  endfacet
  facet normal  0.000000e+000  0.000000e+000  9.999999e-001
    outer loop
      vertex  1.029720e+001  1.090723e+001  0.000000e+000
      vertex -7.191383e+000  1.316374e+001  0.000000e+000
      vertex -1.090723e+001  1.029720e+001  0.000000e+000
    endloop
  endfacet
  facet normal  -0.000000e+000  0.000000e+000  1.000000e+000
    outer loop
      vertex  1.029720e+001  1.090723e+001  0.000000e+000
      vertex -1.090723e+001  1.029720e+001  0.000000e+000
      vertex  1.316374e+001  7.191383e+000  0.000000e+000
    endloop
  endfacet
  facet normal  0.000000e+000  0.000000e+000  1.000000e+000
    outer loop
      vertex  1.316374e+001  7.191383e+000  0.000000e+000
      vertex -1.090723e+001  1.029720e+001  0.000000e+000
      vertex -1.355540e+001  6.422699e+000  0.000000e+000
    endloop
  endfacet
  facet normal  -0.000000e+000  0.000000e+000  1.000000e+000
    outer loop
      vertex  1.316374e+001  7.191383e+000  0.000000e+000
      vertex -1.355540e+001  6.422699e+000  0.000000e+000
      vertex  1.474172e+001  2.771593e+000  0.000000e+000
    endloop
  endfacet
  facet normal  0.000000e+000  0.000000e+000  1.000000e+000
    outer loop
      vertex  1.474172e+001  2.771593e+000  0.000000e+000
      vertex -1.355540e+001  6.422699e+000  0.000000e+000
      vertex -1.487668e+001  1.919500e+000  0.000000e+000
    endloop
  endfacet
  facet normal  -0.000000e+000  0.000000e+000  1.000000e+000
    outer loop
      vertex  1.474172e+001  2.771593e+000  0.000000e+000
      vertex -1.487668e+001  1.919500e+000  0.000000e+000
      vertex  1.487668e+001 -1.919500e+000  0.000000e+000
    endloop
  endfacet
  facet normal  0.000000e+000  0.000000e+000  1.000000e+000
    outer loop
      vertex  1.487668e+001 -1.919500e+000  0.000000e+000
      vertex -1.487668e+001  1.919500e+000  0.000000e+000
      vertex -1.474172e+001 -2.771593e+000  0.000000e+000
    endloop
  endfacet
  facet normal  -0.000000e+000  0.000000e+000  1.000000e+000
    outer loop
      vertex  1.487668e+001 -1.919500e+000  0.000000e+000
      vertex -1.474172e+001 -2.771593e+000  0.000000e+000
      vertex  1.355540e+001 -6.422699e+000  0.000000e+000
    endloop
  endfacet
  facet normal  0.000000e+000  0.000000e+000  1.000000e+000
    outer loop
      vertex  1.355540e+001 -6.422699e+000  0.000000e+000
      vertex -1.474172e+001 -2.771593e+000  0.000000e+000
      vertex -1.316374e+001 -7.191383e+000  0.000000e+000
    endloop
  endfacet
  facet normal  -0.000000e+000  0.000000e+000  1.000000e+000
    outer loop
      vertex  1.355540e+001 -6.422699e+000  0.000000e+000
      vertex -1.316374e+001 -7.191383e+000  0.000000e+000
      vertex  1.090723e+001 -1.029720e+001  0.000000e+000
    endloop
  endfacet
  facet normal  0.000000e+000  0.000000e+000  1.000000e+000
    outer loop
      vertex  1.090723e+001 -1.029720e+001  0.000000e+000
      vertex -1.316374e+001 -7.191383e+000  0.000000e+000
      vertex -1.029720e+001 -1.090723e+001  0.000000e+000
    endloop
  endfacet
  facet normal  -0.000000e+000  0.000000e+000  9.999999e-001
    outer loop
      vertex  1.090723e+001 -1.029720e+001  0.000000e+000
      vertex -1.029720e+001 -1.090723e+001  0.000000e+000
      vertex  7.191383e+000 -1.316374e+001  0.000000e+000
    endloop
  endfacet
  facet normal  0.000000e+000  0.000000e+000  1.000000e+000
    outer loop
      vertex  7.191383e+000 -1.316374e+001  0.000000e+000
      vertex -1.029720e+001 -1.090723e+001  0.000000e+000
      vertex -6.422699e+000 -1.355540e+001  0.000000e+000
    endloop
  endfacet
  facet normal  -0.000000e+000  0.000000e+000  1.000000e+000
    outer loop
      vertex  7.191383e+000 -1.316374e+001  0.000000e+000
      vertex -6.422699e+000 -1.355540e+001  0.000000e+000
      vertex  2.771593e+000 -1.474172e+001  0.000000e+000
    endloop
  endfacet
  facet normal  0.000000e+000  0.000000e+000  1.000000e+000
    outer loop
      vertex  2.771593e+000 -1.474172e+001  0.000000e+000
      vertex -6.422699e+000 -1.355540e+001  0.000000e+000
      vertex -1.919500e+000 -1.487668e+001  0.000000e+000
    endloop
  endfacet
  facet normal  0.000000e+000  0.000000e+000 -1.000000e+000
    outer loop
      vertex  1.523311e+001  2.863979e+000 -1.000000e+000
      vertex -1.400725e+001  6.636789e+000 -1.000000e+000
      vertex  1.360253e+001  7.431096e+000 -1.000000e+000
    endloop
  endfacet
  facet normal  -0.000000e+000  0.000000e+000 -1.000000e+000
    outer loop
      vertex  1.360253e+001  7.431096e+000 -1.000000e+000
      vertex -1.400725e+001  6.636789e+000 -1.000000e+000
      vertex -1.127081e+001  1.064044e+001 -1.000000e+000
    endloop
  endfacet
  facet normal  0.000000e+000  0.000000e+000 -1.000000e+000
    outer loop
      vertex  1.360253e+001  7.431096e+000 -1.000000e+000
      vertex -1.127081e+001  1.064044e+001 -1.000000e+000
      vertex  1.064044e+001  1.127081e+001 -1.000000e+000
    endloop
  endfacet
  facet normal  -0.000000e+000  0.000000e+000 -1.000000e+000
    outer loop
      vertex  1.064044e+001  1.127081e+001 -1.000000e+000
      vertex -1.127081e+001  1.064044e+001 -1.000000e+000
      vertex -7.431096e+000  1.360253e+001 -1.000000e+000
    endloop
  endfacet
  facet normal  0.000000e+000  0.000000e+000 -1.000000e+000
    outer loop
      vertex  1.064044e+001  1.127081e+001 -1.000000e+000
      vertex -7.431096e+000  1.360253e+001 -1.000000e+000
      vertex  6.636789e+000  1.400725e+001 -1.000000e+000
    endloop
  endfacet
  facet normal  -0.000000e+000  0.000000e+000 -1.000000e+000
    outer loop
      vertex  6.636789e+000  1.400725e+001 -1.000000e+000
      vertex -7.431096e+000  1.360253e+001 -1.000000e+000
      vertex -2.863979e+000  1.523311e+001 -1.000000e+000
    endloop
  endfacet
  facet normal  0.000000e+000  0.000000e+000 -1.000000e+000
    outer loop
      vertex  6.636789e+000  1.400725e+001 -1.000000e+000
      vertex -2.863979e+000  1.523311e+001 -1.000000e+000
      vertex  1.983484e+000  1.537257e+001 -1.000000e+000
    endloop
  endfacet
  facet normal  -0.000000e+000  0.000000e+000 -1.000000e+000
    outer loop
      vertex -1.400725e+001  6.636789e+000 -1.000000e+000
      vertex  1.523311e+001  2.863979e+000 -1.000000e+000
      vertex -1.537257e+001  1.983484e+000 -1.000000e+000
    endloop
  endfacet
  facet normal  0.000000e+000  0.000000e+000 -1.000000e+000
    outer loop
      vertex -1.537257e+001  1.983484e+000 -1.000000e+000
      vertex  1.523311e+001  2.863979e+000 -1.000000e+000
      vertex  1.537257e+001 -1.983484e+000 -1.000000e+000
    endloop
  endfacet
  facet normal  -0.000000e+000  0.000000e+000 -1.000000e+000
    outer loop
      vertex -1.537257e+001  1.983484e+000 -1.000000e+000
      vertex  1.537257e+001 -1.983484e+000 -1.000000e+000
      vertex -1.523311e+001 -2.863979e+000 -1.000000e+000
    endloop
  endfacet
  facet normal  0.000000e+000  0.000000e+000 -1.000000e+000
    outer loop
      vertex -1.523311e+001 -2.863979e+000 -1.000000e+000
      vertex  1.537257e+001 -1.983484e+000 -1.000000e+000
      vertex  1.400725e+001 -6.636789e+000 -1.000000e+000
    endloop
  endfacet
  facet normal  -0.000000e+000  0.000000e+000 -1.000000e+000
    outer loop
      vertex -1.523311e+001 -2.863979e+000 -1.000000e+000
      vertex  1.400725e+001 -6.636789e+000 -1.000000e+000
      vertex -1.360253e+001 -7.431096e+000 -1.000000e+000
    endloop
  endfacet
  facet normal  0.000000e+000  0.000000e+000 -1.000000e+000
    outer loop
      vertex -1.360253e+001 -7.431096e+000 -1.000000e+000
      vertex  1.400725e+001 -6.636789e+000 -1.000000e+000
      vertex  1.127081e+001 -1.064044e+001 -1.000000e+000
    endloop
  endfacet
  facet normal  -0.000000e+000  0.000000e+000 -1.000000e+000
    outer loop
      vertex -1.360253e+001 -7.431096e+000 -1.000000e+000
      vertex  1.127081e+001 -1.064044e+001 -1.000000e+000
      vertex -1.064044e+001 -1.127081e+001 -1.000000e+000
    endloop
  endfacet
  facet normal  0.000000e+000  0.000000e+000 -1.000000e+000
    outer loop
      vertex -1.064044e+001 -1.127081e+001 -1.000000e+000
      vertex  1.127081e+001 -1.064044e+001 -1.000000e+000
      vertex  7.431096e+000 -1.360253e+001 -1.000000e+000
    endloop
  endfacet
  facet normal  -0.000000e+000  0.000000e+000 -1.000000e+000
    outer loop
      vertex -1.064044e+001 -1.127081e+001 -1.000000e+000
      vertex  7.431096e+000 -1.360253e+001 -1.000000e+000
      vertex -6.636789e+000 -1.400725e+001 -1.000000e+000
    endloop
  endfacet
  facet normal  0.000000e+000  0.000000e+000 -1.000000e+000
    outer loop
      vertex -6.636789e+000 -1.400725e+001 -1.000000e+000
      vertex  7.431096e+000 -1.360253e+001 -1.000000e+000
      vertex  2.863979e+000 -1.523311e+001 -1.000000e+000
    endloop
  endfacet
  facet normal  -0.000000e+000  0.000000e+000 -1.000000e+000
    outer loop
      vertex -6.636789e+000 -1.400725e+001 -1.000000e+000
      vertex  2.863979e+000 -1.523311e+001 -1.000000e+000
      vertex -1.983484e+000 -1.537257e+001 -1.000000e+000
    endloop
  endfacet
  facet normal  3.362389e-001 -9.417768e-001  0.000000e+000
    outer loop
      vertex  7.431096e+000 -1.360253e+001 -1.000000e+000
      vertex  7.431096e+000 -1.360253e+001  8.000000e+000
      vertex  2.863979e+000 -1.523311e+001 -1.000000e+000
    endloop
  endfacet
  facet normal  3.362389e-001 -9.417768e-001  0.000000e+000
    outer loop
      vertex  2.863979e+000 -1.523311e+001 -1.000000e+000
      vertex  7.431096e+000 -1.360253e+001  8.000000e+000
      vertex  2.863979e+000 -1.523311e+001  8.000000e+000
    endloop
  endfacet
  facet normal  2.875712e-002 -9.995864e-001  0.000000e+000
    outer loop
      vertex  2.863979e+000 -1.523311e+001 -1.000000e+000
      vertex  2.863979e+000 -1.523311e+001  8.000000e+000
      vertex -1.983484e+000 -1.537257e+001 -1.000000e+000
    endloop
  endfacet
  facet normal  2.875712e-002 -9.995864e-001  0.000000e+000
    outer loop
      vertex -1.983484e+000 -1.537257e+001 -1.000000e+000
      vertex  2.863979e+000 -1.523311e+001  8.000000e+000
      vertex -1.983484e+000 -1.537257e+001  8.000000e+000
    endloop
  endfacet
  facet normal -2.815396e-001 -9.595497e-001  -0.000000e+000
    outer loop
      vertex -1.983484e+000 -1.537257e+001 -1.000000e+000
      vertex -1.983484e+000 -1.537257e+001  8.000000e+000
      vertex -6.636789e+000 -1.400725e+001 -1.000000e+000
    endloop
  endfacet
  facet normal -2.815396e-001 -9.595497e-001  0.000000e+000
    outer loop
      vertex -6.636789e+000 -1.400725e+001 -1.000000e+000
      vertex -1.983484e+000 -1.537257e+001  8.000000e+000
      vertex -6.636789e+000 -1.400725e+001  8.000000e+000
    endloop
  endfacet
  facet normal -5.642771e-001 -8.255856e-001  -0.000000e+000
    outer loop
      vertex -6.636789e+000 -1.400725e+001 -1.000000e+000
      vertex -6.636789e+000 -1.400725e+001  8.000000e+000
      vertex -1.064044e+001 -1.127081e+001 -1.000000e+000
    endloop
  endfacet
  facet normal -5.642771e-001 -8.255856e-001  0.000000e+000
    outer loop
      vertex -1.064044e+001 -1.127081e+001 -1.000000e+000
      vertex -6.636789e+000 -1.400725e+001  8.000000e+000
      vertex -1.064044e+001 -1.127081e+001  8.000000e+000
    endloop
  endfacet
  facet normal -7.917795e-001 -6.108071e-001  -0.000000e+000
    outer loop
      vertex -1.064044e+001 -1.127081e+001 -1.000000e+000
      vertex -1.064044e+001 -1.127081e+001  8.000000e+000
      vertex -1.360253e+001 -7.431096e+000 -1.000000e+000
    endloop
  endfacet
  facet normal -7.917795e-001 -6.108071e-001  0.000000e+000
    outer loop
      vertex -1.360253e+001 -7.431096e+000 -1.000000e+000
      vertex -1.064044e+001 -1.127081e+001  8.000000e+000
      vertex -1.360253e+001 -7.431096e+000  8.000000e+000
    endloop
  endfacet
  facet normal -9.417768e-001 -3.362389e-001  -0.000000e+000
    outer loop
      vertex -1.360253e+001 -7.431096e+000 -1.000000e+000
      vertex -1.360253e+001 -7.431096e+000  8.000000e+000
      vertex -1.523311e+001 -2.863979e+000 -1.000000e+000
    endloop
  endfacet
  facet normal -9.417768e-001 -3.362389e-001  0.000000e+000
    outer loop
      vertex -1.523311e+001 -2.863979e+000 -1.000000e+000
      vertex -1.360253e+001 -7.431096e+000  8.000000e+000
      vertex -1.523311e+001 -2.863979e+000  8.000000e+000
    endloop
  endfacet
  facet normal -9.995864e-001 -2.875712e-002  -0.000000e+000
    outer loop
      vertex -1.523311e+001 -2.863979e+000 -1.000000e+000
      vertex -1.523311e+001 -2.863979e+000  8.000000e+000
      vertex -1.537257e+001  1.983484e+000 -1.000000e+000
    endloop
  endfacet
  facet normal -9.995864e-001 -2.875712e-002  0.000000e+000
    outer loop
      vertex -1.537257e+001  1.983484e+000 -1.000000e+000
      vertex -1.523311e+001 -2.863979e+000  8.000000e+000
      vertex -1.537257e+001  1.983484e+000  8.000000e+000
    endloop
  endfacet
  facet normal -9.595497e-001  2.815396e-001  0.000000e+000
    outer loop
      vertex -1.537257e+001  1.983484e+000 -1.000000e+000
      vertex -1.537257e+001  1.983484e+000  8.000000e+000
      vertex -1.400725e+001  6.636789e+000 -1.000000e+000
    endloop
  endfacet
  facet normal -9.595497e-001  2.815396e-001  0.000000e+000
    outer loop
      vertex -1.400725e+001  6.636789e+000 -1.000000e+000
      vertex -1.537257e+001  1.983484e+000  8.000000e+000
      vertex -1.400725e+001  6.636789e+000  8.000000e+000
    endloop
  endfacet
  facet normal -8.255856e-001  5.642771e-001  0.000000e+000
    outer loop
      vertex -1.400725e+001  6.636789e+000 -1.000000e+000
      vertex -1.400725e+001  6.636789e+000  8.000000e+000
      vertex -1.127081e+001  1.064044e+001 -1.000000e+000
    endloop
  endfacet
  facet normal -8.255856e-001  5.642771e-001  0.000000e+000
    outer loop
      vertex -1.127081e+001  1.064044e+001 -1.000000e+000
      vertex -1.400725e+001  6.636789e+000  8.000000e+000
      vertex -1.127081e+001  1.064044e+001  8.000000e+000
    endloop
  endfacet
  facet normal -6.108071e-001  7.917795e-001  0.000000e+000
    outer loop
      vertex -1.127081e+001  1.064044e+001 -1.000000e+000
      vertex -1.127081e+001  1.064044e+001  8.000000e+000
      vertex -7.431096e+000  1.360253e+001 -1.000000e+000
    endloop
  endfacet
  facet normal -6.108071e-001  7.917795e-001  0.000000e+000
    outer loop
      vertex -7.431096e+000  1.360253e+001 -1.000000e+000
      vertex -1.127081e+001  1.064044e+001  8.000000e+000
      vertex -7.431096e+000  1.360253e+001  8.000000e+000
    endloop
  endfacet
  facet normal -3.362389e-001  9.417768e-001  0.000000e+000
    outer loop
      vertex -7.431096e+000  1.360253e+001 -1.000000e+000
      vertex -7.431096e+000  1.360253e+001  8.000000e+000
      vertex -2.863979e+000  1.523311e+001 -1.000000e+000
    endloop
  endfacet
  facet normal -3.362389e-001  9.417768e-001  0.000000e+000
    outer loop
      vertex -2.863979e+000  1.523311e+001 -1.000000e+000
      vertex -7.431096e+000  1.360253e+001  8.000000e+000
      vertex -2.863979e+000  1.523311e+001  8.000000e+000
    endloop
  endfacet
  facet normal -2.875712e-002  9.995864e-001  0.000000e+000
    outer loop
      vertex -2.863979e+000  1.523311e+001 -1.000000e+000
      vertex -2.863979e+000  1.523311e+001  8.000000e+000
      vertex  1.983484e+000  1.537257e+001 -1.000000e+000
    endloop
  endfacet
  facet normal -2.875712e-002  9.995864e-001  0.000000e+000
    outer loop
      vertex  1.983484e+000  1.537257e+001 -1.000000e+000
      vertex -2.863979e+000  1.523311e+001  8.000000e+000
      vertex  1.983484e+000  1.537257e+001  8.000000e+000
    endloop
  endfacet
  facet normal  2.815396e-001  9.595497e-001  0.000000e+000
    outer loop
      vertex  1.983484e+000  1.537257e+001 -1.000000e+000
      vertex  1.983484e+000  1.537257e+001  8.000000e+000
      vertex  6.636789e+000  1.400725e+001 -1.000000e+000
    endloop
  endfacet
  facet normal  2.815396e-001  9.595497e-001  -0.000000e+000
    outer loop
      vertex  6.636789e+000  1.400725e+001 -1.000000e+000
      vertex  1.983484e+000  1.537257e+001  8.000000e+000
      vertex  6.636789e+000  1.400725e+001  8.000000e+000
    endloop
  endfacet
  facet normal  5.642771e-001  8.255856e-001  0.000000e+000
    outer loop
      vertex  6.636789e+000  1.400725e+001 -1.000000e+000
      vertex  6.636789e+000  1.400725e+001  8.000000e+000
      vertex  1.064044e+001  1.127081e+001 -1.000000e+000
    endloop
  endfacet
  facet normal  5.642771e-001  8.255856e-001  -0.000000e+000
    outer loop
      vertex  1.064044e+001  1.127081e+001 -1.000000e+000
      vertex  6.636789e+000  1.400725e+001  8.000000e+000
      vertex  1.064044e+001  1.127081e+001  8.000000e+000
    endloop
  endfacet
  facet normal  7.917795e-001  6.108071e-001  0.000000e+000
    outer loop
      vertex  1.064044e+001  1.127081e+001 -1.000000e+000
      vertex  1.064044e+001  1.127081e+001  8.000000e+000
      vertex  1.360253e+001  7.431096e+000 -1.000000e+000
    endloop
  endfacet
  facet normal  7.917795e-001  6.108071e-001  -0.000000e+000
    outer loop
      vertex  1.360253e+001  7.431096e+000 -1.000000e+000
      vertex  1.064044e+001  1.127081e+001  8.000000e+000
      vertex  1.360253e+001  7.431096e+000  8.000000e+000
    endloop
  endfacet
  facet normal  9.417768e-001  3.362389e-001  0.000000e+000
    outer loop
      vertex  1.360253e+001  7.431096e+000 -1.000000e+000
      vertex  1.360253e+001  7.431096e+000  8.000000e+000
      vertex  1.523311e+001  2.863979e+000 -1.000000e+000
    endloop
  endfacet
  facet normal  9.417768e-001  3.362389e-001  -0.000000e+000
    outer loop
      vertex  1.523311e+001  2.863979e+000 -1.000000e+000
      vertex  1.360253e+001  7.431096e+000  8.000000e+000
      vertex  1.523311e+001  2.863979e+000  8.000000e+000
    endloop
  endfacet
  facet normal  9.995864e-001  2.875712e-002  0.000000e+000
    outer loop
      vertex  1.523311e+001  2.863979e+000 -1.000000e+000
      vertex  1.523311e+001  2.863979e+000  8.000000e+000
      vertex  1.537257e+001 -1.983484e+000 -1.000000e+000
    endloop
  endfacet
  facet normal  9.995864e-001  2.875712e-002  -0.000000e+000
    outer loop
      vertex  1.537257e+001 -1.983484e+000 -1.000000e+000
      vertex  1.523311e+001  2.863979e+000  8.000000e+000
      vertex  1.537257e+001 -1.983484e+000  8.000000e+000
    endloop
  endfacet
  facet normal  9.595497e-001 -2.815396e-001  0.000000e+000
    outer loop
      vertex  1.537257e+001 -1.983484e+000 -1.000000e+000
      vertex  1.537257e+001 -1.983484e+000  8.000000e+000
      vertex  1.400725e+001 -6.636789e+000 -1.000000e+000
    endloop
  endfacet
  facet normal  9.595497e-001 -2.815396e-001  0.000000e+000
    outer loop
      vertex  1.400725e+001 -6.636789e+000 -1.000000e+000
      vertex  1.537257e+001 -1.983484e+000  8.000000e+000
      vertex  1.400725e+001 -6.636789e+000  8.000000e+000
    endloop
  endfacet
  facet normal  8.255856e-001 -5.642771e-001  0.000000e+000
    outer loop
      vertex  1.400725e+001 -6.636789e+000 -1.000000e+000
      vertex  1.400725e+001 -6.636789e+000  8.000000e+000
      vertex  1.127081e+001 -1.064044e+001 -1.000000e+000
    endloop
  endfacet
  facet normal  8.255856e-001 -5.642771e-001  0.000000e+000
    outer loop
      vertex  1.127081e+001 -1.064044e+001 -1.000000e+000
      vertex  1.400725e+001 -6.636789e+000  8.000000e+000
      vertex  1.127081e+001 -1.064044e+001  8.000000e+000
    endloop
  endfacet
  facet normal  6.108071e-001 -7.917795e-001  0.000000e+000
    outer loop
      vertex  1.127081e+001 -1.064044e+001 -1.000000e+000
      vertex  1.127081e+001 -1.064044e+001  8.000000e+000
      vertex  7.431096e+000 -1.360253e+001 -1.000000e+000
    endloop
  endfacet
  facet normal  6.108071e-001 -7.917795e-001  0.000000e+000
    outer loop
      vertex  7.431096e+000 -1.360253e+001 -1.000000e+000
      vertex  1.127081e+001 -1.064044e+001  8.000000e+000
      vertex  7.431096e+000 -1.360253e+001  8.000000e+000
    endloop
  endfacet
  facet normal  7.917793e-001  6.108072e-001  0.000000e+000
    outer loop
      vertex -1.316374e+001 -7.191383e+000  0.000000e+000
      vertex -1.029720e+001 -1.090723e+001  8.000000e+000
      vertex -1.029720e+001 -1.090723e+001  0.000000e+000
    endloop
  endfacet
  facet normal  5.642772e-001  8.255854e-001  -0.000000e+000
    outer loop
      vertex -1.029720e+001 -1.090723e+001  0.000000e+000
      vertex -1.029720e+001 -1.090723e+001  8.000000e+000
      vertex -6.422699e+000 -1.355540e+001  8.000000e+000
    endloop
  endfacet
  facet normal  5.642772e-001  8.255854e-001  0.000000e+000
    outer loop
      vertex -1.029720e+001 -1.090723e+001  0.000000e+000
      vertex -6.422699e+000 -1.355540e+001  8.000000e+000
      vertex -6.422699e+000 -1.355540e+001  0.000000e+000
    endloop
  endfacet
  facet normal  2.815394e-001  9.595497e-001  -0.000000e+000
    outer loop
      vertex -6.422699e+000 -1.355540e+001  0.000000e+000
      vertex -6.422699e+000 -1.355540e+001  8.000000e+000
      vertex -1.919500e+000 -1.487668e+001  8.000000e+000
    endloop
  endfacet
  facet normal  2.815394e-001  9.595497e-001  0.000000e+000
    outer loop
      vertex -6.422699e+000 -1.355540e+001  0.000000e+000
      vertex -1.919500e+000 -1.487668e+001  8.000000e+000
      vertex -1.919500e+000 -1.487668e+001  0.000000e+000
    endloop
  endfacet
  facet normal -2.875695e-002  9.995865e-001  0.000000e+000
    outer loop
      vertex -1.919500e+000 -1.487668e+001  0.000000e+000
      vertex -1.919500e+000 -1.487668e+001  8.000000e+000
      vertex  2.771593e+000 -1.474172e+001  8.000000e+000
    endloop
  endfacet
  facet normal -2.875695e-002  9.995865e-001  0.000000e+000
    outer loop
      vertex -1.919500e+000 -1.487668e+001  0.000000e+000
      vertex  2.771593e+000 -1.474172e+001  8.000000e+000
      vertex  2.771593e+000 -1.474172e+001  0.000000e+000
    endloop
  endfacet
  facet normal -3.362390e-001  9.417767e-001  0.000000e+000
    outer loop
      vertex  2.771593e+000 -1.474172e+001  0.000000e+000
      vertex  2.771593e+000 -1.474172e+001  8.000000e+000
      vertex  7.191383e+000 -1.316374e+001  8.000000e+000
    endloop
  endfacet
  facet normal -3.362390e-001  9.417767e-001  0.000000e+000
    outer loop
      vertex  2.771593e+000 -1.474172e+001  0.000000e+000
      vertex  7.191383e+000 -1.316374e+001  8.000000e+000
      vertex  7.191383e+000 -1.316374e+001  0.000000e+000
    endloop
  endfacet
  facet normal  7.917793e-001  6.108072e-001  -0.000000e+000
    outer loop
      vertex -1.029720e+001 -1.090723e+001  8.000000e+000
      vertex -1.316374e+001 -7.191383e+000  0.000000e+000
      vertex -1.316374e+001 -7.191383e+000  8.000000e+000
    endloop
  endfacet
  facet normal  9.417767e-001  3.362390e-001  0.000000e+000
    outer loop
      vertex -1.316374e+001 -7.191383e+000  8.000000e+000
      vertex -1.316374e+001 -7.191383e+000  0.000000e+000
      vertex -1.474172e+001 -2.771593e+000  0.000000e+000
    endloop
  endfacet
  facet normal  9.417767e-001  3.362390e-001  -0.000000e+000
    outer loop
      vertex -1.316374e+001 -7.191383e+000  8.000000e+000
      vertex -1.474172e+001 -2.771593e+000  0.000000e+000
      vertex -1.474172e+001 -2.771593e+000  8.000000e+000
    endloop
  endfacet
  facet normal  9.995865e-001  2.875695e-002  0.000000e+000
    outer loop
      vertex -1.474172e+001 -2.771593e+000  8.000000e+000
      vertex -1.474172e+001 -2.771593e+000  0.000000e+000
      vertex -1.487668e+001  1.919500e+000  0.000000e+000
    endloop
  endfacet
  facet normal  9.995865e-001  2.875695e-002  -0.000000e+000
    outer loop
      vertex -1.474172e+001 -2.771593e+000  8.000000e+000
      vertex -1.487668e+001  1.919500e+000  0.000000e+000
      vertex -1.487668e+001  1.919500e+000  8.000000e+000
    endloop
  endfacet
  facet normal  9.595497e-001 -2.815394e-001  0.000000e+000
    outer loop
      vertex -1.487668e+001  1.919500e+000  8.000000e+000
      vertex -1.487668e+001  1.919500e+000  0.000000e+000
      vertex -1.355540e+001  6.422699e+000  0.000000e+000
    endloop
  endfacet
  facet normal  9.595497e-001 -2.815394e-001  0.000000e+000
    outer loop
      vertex -1.487668e+001  1.919500e+000  8.000000e+000
      vertex -1.355540e+001  6.422699e+000  0.000000e+000
      vertex -1.355540e+001  6.422699e+000  8.000000e+000
    endloop
  endfacet
  facet normal  8.255854e-001 -5.642772e-001  0.000000e+000
    outer loop
      vertex -1.355540e+001  6.422699e+000  8.000000e+000
      vertex -1.355540e+001  6.422699e+000  0.000000e+000
      vertex -1.090723e+001  1.029720e+001  0.000000e+000
    endloop
  endfacet
  facet normal  8.255854e-001 -5.642772e-001  0.000000e+000
    outer loop
      vertex -1.355540e+001  6.422699e+000  8.000000e+000
      vertex -1.090723e+001  1.029720e+001  0.000000e+000
      vertex -1.090723e+001  1.029720e+001  8.000000e+000
    endloop
  endfacet
  facet normal  6.108072e-001 -7.917793e-001  0.000000e+000
    outer loop
      vertex -1.090723e+001  1.029720e+001  8.000000e+000
      vertex -1.090723e+001  1.029720e+001  0.000000e+000
      vertex -7.191383e+000  1.316374e+001  0.000000e+000
    endloop
  endfacet
  facet normal  6.108072e-001 -7.917793e-001  0.000000e+000
    outer loop
      vertex -1.090723e+001  1.029720e+001  8.000000e+000
      vertex -7.191383e+000  1.316374e+001  0.000000e+000
      vertex -7.191383e+000  1.316374e+001  8.000000e+000
    endloop
  endfacet
  facet normal -7.917793e-001 -6.108072e-001  -0.000000e+000
    outer loop
      vertex  1.316374e+001  7.191383e+000  0.000000e+000
      vertex  1.029720e+001  1.090723e+001  8.000000e+000
      vertex  1.029720e+001  1.090723e+001  0.000000e+000
    endloop
  endfacet
  facet normal -5.642772e-001 -8.255854e-001  0.000000e+000
    outer loop
      vertex  1.029720e+001  1.090723e+001  0.000000e+000
      vertex  1.029720e+001  1.090723e+001  8.000000e+000
      vertex  6.422699e+000  1.355540e+001  8.000000e+000
    endloop
  endfacet
  facet normal -5.642772e-001 -8.255854e-001  -0.000000e+000
    outer loop
      vertex  1.029720e+001  1.090723e+001  0.000000e+000
      vertex  6.422699e+000  1.355540e+001  8.000000e+000
      vertex  6.422699e+000  1.355540e+001  0.000000e+000
    endloop
  endfacet
  facet normal -2.815394e-001 -9.595497e-001  0.000000e+000
    outer loop
      vertex  6.422699e+000  1.355540e+001  0.000000e+000
      vertex  6.422699e+000  1.355540e+001  8.000000e+000
      vertex  1.919500e+000  1.487668e+001  8.000000e+000
    endloop
  endfacet
  facet normal -2.815394e-001 -9.595497e-001  -0.000000e+000
    outer loop
      vertex  6.422699e+000  1.355540e+001  0.000000e+000
      vertex  1.919500e+000  1.487668e+001  8.000000e+000
      vertex  1.919500e+000  1.487668e+001  0.000000e+000
    endloop
  endfacet
  facet normal  2.875695e-002 -9.995865e-001  0.000000e+000
    outer loop
      vertex  1.919500e+000  1.487668e+001  0.000000e+000
      vertex  1.919500e+000  1.487668e+001  8.000000e+000
      vertex -2.771593e+000  1.474172e+001  8.000000e+000
    endloop
  endfacet
  facet normal  2.875695e-002 -9.995865e-001  0.000000e+000
    outer loop
      vertex  1.919500e+000  1.487668e+001  0.000000e+000
      vertex -2.771593e+000  1.474172e+001  8.000000e+000
      vertex -2.771593e+000  1.474172e+001  0.000000e+000
    endloop
  endfacet
  facet normal  3.362390e-001 -9.417767e-001  0.000000e+000
    outer loop
      vertex -2.771593e+000  1.474172e+001  0.000000e+000
      vertex -2.771593e+000  1.474172e+001  8.000000e+000
      vertex -7.191383e+000  1.316374e+001  8.000000e+000
    endloop
  endfacet
  facet normal  3.362390e-001 -9.417767e-001  0.000000e+000
    outer loop
      vertex -2.771593e+000  1.474172e+001  0.000000e+000
      vertex -7.191383e+000  1.316374e+001  8.000000e+000
      vertex -7.191383e+000  1.316374e+001  0.000000e+000
    endloop
  endfacet
  facet normal -7.917793e-001 -6.108072e-001  0.000000e+000
    outer loop
      vertex  1.029720e+001  1.090723e+001  8.000000e+000
      vertex  1.316374e+001  7.191383e+000  0.000000e+000
      vertex  1.316374e+001  7.191383e+000  8.000000e+000
    endloop
  endfacet
  facet normal -9.417767e-001 -3.362390e-001  -0.000000e+000
    outer loop
      vertex  1.316374e+001  7.191383e+000  8.000000e+000
      vertex  1.316374e+001  7.191383e+000  0.000000e+000
      vertex  1.474172e+001  2.771593e+000  0.000000e+000
    endloop
  endfacet
  facet normal -9.417767e-001 -3.362390e-001  0.000000e+000
    outer loop
      vertex  1.316374e+001  7.191383e+000  8.000000e+000
      vertex  1.474172e+001  2.771593e+000  0.000000e+000
      vertex  1.474172e+001  2.771593e+000  8.000000e+000
    endloop
  endfacet
  facet normal -9.995865e-001 -2.875695e-002  -0.000000e+000
    outer loop
      vertex  1.474172e+001  2.771593e+000  8.000000e+000
      vertex  1.474172e+001  2.771593e+000  0.000000e+000
      vertex  1.487668e+001 -1.919500e+000  0.000000e+000
    endloop
  endfacet
  facet normal -9.995865e-001 -2.875695e-002  0.000000e+000
    outer loop
      vertex  1.474172e+001  2.771593e+000  8.000000e+000
      vertex  1.487668e+001 -1.919500e+000  0.000000e+000
      vertex  1.487668e+001 -1.919500e+000  8.000000e+000
    endloop
  endfacet
  facet normal -9.595497e-001  2.815394e-001  0.000000e+000
    outer loop
      vertex  1.487668e+001 -1.919500e+000  8.000000e+000
      vertex  1.487668e+001 -1.919500e+000  0.000000e+000
      vertex  1.355540e+001 -6.422699e+000  0.000000e+000
    endloop
  endfacet
  facet normal -9.595497e-001  2.815394e-001  0.000000e+000
    outer loop
      vertex  1.487668e+001 -1.919500e+000  8.000000e+000
      vertex  1.355540e+001 -6.422699e+000  0.000000e+000
      vertex  1.355540e+001 -6.422699e+000  8.000000e+000
    endloop
  endfacet
  facet normal -8.255854e-001  5.642772e-001  0.000000e+000
    outer loop
      vertex  1.355540e+001 -6.422699e+000  8.000000e+000
      vertex  1.355540e+001 -6.422699e+000  0.000000e+000
      vertex  1.090723e+001 -1.029720e+001  0.000000e+000
    endloop
  endfacet
  facet normal -8.255854e-001  5.642772e-001  0.000000e+000
    outer loop
      vertex  1.355540e+001 -6.422699e+000  8.000000e+000
      vertex  1.090723e+001 -1.029720e+001  0.000000e+000
      vertex  1.090723e+001 -1.029720e+001  8.000000e+000
    endloop
  endfacet
  facet normal -6.108072e-001  7.917793e-001  0.000000e+000
    outer loop
      vertex  1.090723e+001 -1.029720e+001  8.000000e+000
      vertex  1.090723e+001 -1.029720e+001  0.000000e+000
      vertex  7.191383e+000 -1.316374e+001  0.000000e+000
    endloop
  endfacet
  facet normal -6.108072e-001  7.917793e-001  0.000000e+000
    outer loop
      vertex  1.090723e+001 -1.029720e+001  8.000000e+000
      vertex  7.191383e+000 -1.316374e+001  0.000000e+000
      vertex  7.191383e+000 -1.316374e+001  8.000000e+000
    endloop
  endfacet
endsolid CATIA STL
