solid CATIA STL
  facet normal  0.000000e+000  0.000000e+000  1.000000e+000
    outer loop
      vertex  1.729160e+000 -1.136926e+001  8.000000e+000
      vertex  1.653979e+000 -1.087494e+001  8.000000e+000
      vertex -2.263636e+000 -1.127501e+001  8.000000e+000
    endloop
  endfacet
  facet normal  0.000000e+000  0.000000e+000  1.000000e+000
    outer loop
      vertex -2.263636e+000 -1.127501e+001  8.000000e+000
      vertex  1.653979e+000 -1.087494e+001  8.000000e+000
      vertex -2.165217e+000 -1.078480e+001  8.000000e+000
    endloop
  endfacet
  facet normal  0.000000e+000  0.000000e+000  1.000000e+000
    outer loop
      vertex -2.263636e+000 -1.127501e+001  8.000000e+000
      vertex -2.165217e+000 -1.078480e+001  8.000000e+000
      vertex -5.983404e+000 -9.820839e+000  8.000000e+000
    endloop
  endfacet
  facet normal  -0.000000e+000  0.000000e+000  1.000000e+000
    outer loop
      vertex -5.983404e+000 -9.820839e+000  8.000000e+000
      vertex -2.165217e+000 -1.078480e+001  8.000000e+000
      vertex -5.723256e+000 -9.393846e+000  8.000000e+000
    endloop
  endfacet
  facet normal  0.000000e+000  0.000000e+000  1.000000e+000
    outer loop
      vertex -5.983404e+000 -9.820839e+000  8.000000e+000
      vertex -5.723256e+000 -9.393846e+000  8.000000e+000
      vertex -8.981485e+000 -7.182125e+000  8.000000e+000
    endloop
  endfacet
  facet normal  -0.000000e+000  0.000000e+000  9.999999e-001
    outer loop
      vertex -8.981485e+000 -7.182125e+000  8.000000e+000
      vertex -5.723256e+000 -9.393846e+000  8.000000e+000
      vertex -8.590986e+000 -6.869859e+000  8.000000e+000
    endloop
  endfacet
  facet normal  0.000000e+000  0.000000e+000  1.000000e+000
    outer loop
      vertex -8.981485e+000 -7.182125e+000  8.000000e+000
      vertex -8.590986e+000 -6.869859e+000  8.000000e+000
      vertex -1.089627e+001 -3.677141e+000  8.000000e+000
    endloop
  endfacet
  facet normal  -0.000000e+000  0.000000e+000  1.000000e+000
    outer loop
      vertex -1.089627e+001 -3.677141e+000  8.000000e+000
      vertex -8.590986e+000 -6.869859e+000  8.000000e+000
      vertex -1.042252e+001 -3.517265e+000  8.000000e+000
    endloop
  endfacet
  facet normal  0.000000e+000  0.000000e+000  9.999999e-001
    outer loop
      vertex -1.089627e+001 -3.677141e+000  8.000000e+000
      vertex -1.042252e+001 -3.517265e+000  8.000000e+000
      vertex -1.149680e+001  2.713607e-001  8.000000e+000
    endloop
  endfacet
  facet normal  0.000000e+000  0.000000e+000  1.000000e+000
    outer loop
      vertex -1.149680e+001  2.713607e-001  8.000000e+000
      vertex -1.042252e+001 -3.517265e+000  8.000000e+000
      vertex -1.099694e+001  2.595624e-001  8.000000e+000
    endloop
  endfacet
  facet normal  0.000000e+000  -0.000000e+000  1.000000e+000
    outer loop
      vertex -1.149680e+001  2.713607e-001  8.000000e+000
      vertex -1.099694e+001  2.595624e-001  8.000000e+000
      vertex -1.071065e+001  4.187132e+000  8.000000e+000
    endloop
  endfacet
  facet normal  0.000000e+000  0.000000e+000  1.000000e+000
    outer loop
      vertex -1.071065e+001  4.187132e+000  8.000000e+000
      vertex -1.099694e+001  2.595624e-001  8.000000e+000
      vertex -1.024497e+001  4.005083e+000  8.000000e+000
    endloop
  endfacet
  facet normal  0.000000e+000  -0.000000e+000  1.000000e+000
    outer loop
      vertex -1.071065e+001  4.187132e+000  8.000000e+000
      vertex -1.024497e+001  4.005083e+000  8.000000e+000
      vertex -8.632631e+000  7.597874e+000  8.000000e+000
    endloop
  endfacet
  facet normal  0.000000e+000  0.000000e+000  9.999999e-001
    outer loop
      vertex -8.632631e+000  7.597874e+000  8.000000e+000
      vertex -1.024497e+001  4.005083e+000  8.000000e+000
      vertex -8.257299e+000  7.267531e+000  8.000000e+000
    endloop
  endfacet
  facet normal  0.000000e+000  -0.000000e+000  1.000000e+000
    outer loop
      vertex -8.632631e+000  7.597874e+000  8.000000e+000
      vertex -8.257299e+000  7.267531e+000  8.000000e+000
      vertex -5.513394e+000  1.009220e+001  8.000000e+000
    endloop
  endfacet
  facet normal  0.000000e+000  0.000000e+000  1.000000e+000
    outer loop
      vertex -5.513394e+000  1.009220e+001  8.000000e+000
      vertex -8.257299e+000  7.267531e+000  8.000000e+000
      vertex -5.273681e+000  9.653408e+000  8.000000e+000
    endloop
  endfacet
  facet normal  0.000000e+000  -0.000000e+000  1.000000e+000
    outer loop
      vertex -5.513394e+000  1.009220e+001  8.000000e+000
      vertex -5.273681e+000  9.653408e+000  8.000000e+000
      vertex -1.729160e+000  1.136926e+001  8.000000e+000
    endloop
  endfacet
  facet normal  0.000000e+000  0.000000e+000  1.000000e+000
    outer loop
      vertex -1.729160e+000  1.136926e+001  8.000000e+000
      vertex -5.273681e+000  9.653408e+000  8.000000e+000
      vertex -1.653979e+000  1.087494e+001  8.000000e+000
    endloop
  endfacet
  facet normal  0.000000e+000  -0.000000e+000  1.000000e+000
    outer loop
      vertex -1.729160e+000  1.136926e+001  8.000000e+000
      vertex -1.653979e+000  1.087494e+001  8.000000e+000
      vertex  2.263636e+000  1.127501e+001  8.000000e+000
    endloop
  endfacet
  facet normal  0.000000e+000  0.000000e+000  1.000000e+000
    outer loop
      vertex  2.263636e+000  1.127501e+001  8.000000e+000
      vertex -1.653979e+000  1.087494e+001  8.000000e+000
      vertex  2.165217e+000  1.078480e+001  8.000000e+000
    endloop
  endfacet
  facet normal  -0.000000e+000  0.000000e+000  1.000000e+000
    outer loop
      vertex  2.263636e+000  1.127501e+001  8.000000e+000
      vertex  2.165217e+000  1.078480e+001  8.000000e+000
      vertex  5.983404e+000  9.820839e+000  8.000000e+000
    endloop
  endfacet
  facet normal  0.000000e+000  0.000000e+000  1.000000e+000
    outer loop
      vertex  5.983404e+000  9.820839e+000  8.000000e+000
      vertex  2.165217e+000  1.078480e+001  8.000000e+000
      vertex  5.723256e+000  9.393846e+000  8.000000e+000
    endloop
  endfacet
  facet normal  -0.000000e+000  0.000000e+000  1.000000e+000
    outer loop
      vertex  5.983404e+000  9.820839e+000  8.000000e+000
      vertex  5.723256e+000  9.393846e+000  8.000000e+000
      vertex  8.981485e+000  7.182125e+000  8.000000e+000
    endloop
  endfacet
  facet normal  0.000000e+000  0.000000e+000  9.999999e-001
    outer loop
      vertex  8.981485e+000  7.182125e+000  8.000000e+000
      vertex  5.723256e+000  9.393846e+000  8.000000e+000
      vertex  8.590986e+000  6.869859e+000  8.000000e+000
    endloop
  endfacet
  facet normal  -0.000000e+000  0.000000e+000  1.000000e+000
    outer loop
      vertex  8.981485e+000  7.182125e+000  8.000000e+000
      vertex  8.590986e+000  6.869859e+000  8.000000e+000
      vertex  1.089627e+001  3.677141e+000  8.000000e+000
    endloop
  endfacet
  facet normal  0.000000e+000  0.000000e+000  1.000000e+000
    outer loop
      vertex  1.089627e+001  3.677141e+000  8.000000e+000
      vertex  8.590986e+000  6.869859e+000  8.000000e+000
      vertex  1.042252e+001  3.517265e+000  8.000000e+000
    endloop
  endfacet
  facet normal  -0.000000e+000  0.000000e+000  9.999999e-001
    outer loop
      vertex  1.089627e+001  3.677141e+000  8.000000e+000
      vertex  1.042252e+001  3.517265e+000  8.000000e+000
      vertex  1.149680e+001 -2.713607e-001  8.000000e+000
    endloop
  endfacet
  facet normal  0.000000e+000  0.000000e+000  1.000000e+000
    outer loop
      vertex  1.149680e+001 -2.713607e-001  8.000000e+000
      vertex  1.042252e+001  3.517265e+000  8.000000e+000
      vertex  1.099694e+001 -2.595624e-001  8.000000e+000
    endloop
  endfacet
  facet normal  0.000000e+000  0.000000e+000  1.000000e+000
    outer loop
      vertex  1.149680e+001 -2.713607e-001  8.000000e+000
      vertex  1.099694e+001 -2.595624e-001  8.000000e+000
      vertex  1.071065e+001 -4.187132e+000  8.000000e+000
    endloop
  endfacet
  facet normal  0.000000e+000  -0.000000e+000  1.000000e+000
    outer loop
      vertex  1.071065e+001 -4.187132e+000  8.000000e+000
      vertex  1.099694e+001 -2.595624e-001  8.000000e+000
      vertex  1.024497e+001 -4.005083e+000  8.000000e+000
    endloop
  endfacet
  facet normal  0.000000e+000  0.000000e+000  1.000000e+000
    outer loop
      vertex  1.071065e+001 -4.187132e+000  8.000000e+000
      vertex  1.024497e+001 -4.005083e+000  8.000000e+000
      vertex  8.632631e+000 -7.597874e+000  8.000000e+000
    endloop
  endfacet
  facet normal  0.000000e+000  -0.000000e+000  9.999999e-001
    outer loop
      vertex  8.632631e+000 -7.597874e+000  8.000000e+000
      vertex  1.024497e+001 -4.005083e+000  8.000000e+000
      vertex  8.257299e+000 -7.267531e+000  8.000000e+000
    endloop
  endfacet
  facet normal  0.000000e+000  0.000000e+000  1.000000e+000
    outer loop
      vertex  8.632631e+000 -7.597874e+000  8.000000e+000
      vertex  8.257299e+000 -7.267531e+000  8.000000e+000
      vertex  5.513394e+000 -1.009220e+001  8.000000e+000
    endloop
  endfacet
  facet normal  0.000000e+000  -0.000000e+000  1.000000e+000
    outer loop
      vertex  5.513394e+000 -1.009220e+001  8.000000e+000
      vertex  8.257299e+000 -7.267531e+000  8.000000e+000
      vertex  5.273681e+000 -9.653408e+000  8.000000e+000
    endloop
  endfacet
  facet normal  0.000000e+000  0.000000e+000  1.000000e+000
    outer loop
      vertex  5.513394e+000 -1.009220e+001  8.000000e+000
      vertex  5.273681e+000 -9.653408e+000  8.000000e+000
      vertex  1.729160e+000 -1.136926e+001  8.000000e+000
    endloop
  endfacet
  facet normal  0.000000e+000  -0.000000e+000  1.000000e+000
    outer loop
      vertex  1.729160e+000 -1.136926e+001  8.000000e+000
      vertex  5.273681e+000 -9.653408e+000  8.000000e+000
      vertex  1.653979e+000 -1.087494e+001  8.000000e+000
    endloop
  endfacet
  facet normal  0.000000e+000  0.000000e+000  1.000000e+000
    outer loop
      vertex  2.165217e+000  1.078480e+001  1.776357e-015
      vertex -1.653979e+000  1.087494e+001  1.776357e-015
      vertex  5.723256e+000  9.393846e+000  1.776357e-015
    endloop
  endfacet
  facet normal  0.000000e+000  0.000000e+000  1.000000e+000
    outer loop
      vertex  5.723256e+000  9.393846e+000  1.776357e-015
      vertex -1.653979e+000  1.087494e+001  1.776357e-015
      vertex -5.273681e+000  9.653408e+000  1.776357e-015
    endloop
  endfacet
  facet normal  0.000000e+000  0.000000e+000  9.999999e-001
    outer loop
      vertex  5.723256e+000  9.393846e+000  1.776357e-015
      vertex -5.273681e+000  9.653408e+000  1.776357e-015
      vertex  8.590986e+000  6.869859e+000  1.776357e-015
    endloop
  endfacet
  facet normal  0.000000e+000  0.000000e+000  1.000000e+000
    outer loop
      vertex  8.590986e+000  6.869859e+000  1.776357e-015
      vertex -5.273681e+000  9.653408e+000  1.776357e-015
      vertex -8.257299e+000  7.267531e+000  1.776357e-015
    endloop
  endfacet
  facet normal  0.000000e+000  0.000000e+000  1.000000e+000
    outer loop
      vertex  8.590986e+000  6.869859e+000  1.776357e-015
      vertex -8.257299e+000  7.267531e+000  1.776357e-015
      vertex  1.042252e+001  3.517265e+000  1.776357e-015
    endloop
  endfacet
  facet normal  0.000000e+000  0.000000e+000  1.000000e+000
    outer loop
      vertex  1.042252e+001  3.517265e+000  1.776357e-015
      vertex -8.257299e+000  7.267531e+000  1.776357e-015
      vertex -1.024497e+001  4.005083e+000  1.776357e-015
    endloop
  endfacet
  facet normal  0.000000e+000  0.000000e+000  1.000000e+000
    outer loop
      vertex  1.042252e+001  3.517265e+000  1.776357e-015
      vertex -1.024497e+001  4.005083e+000  1.776357e-015
      vertex  1.099694e+001 -2.595624e-001  1.776357e-015
    endloop
  endfacet
  facet normal  0.000000e+000  0.000000e+000  1.000000e+000
    outer loop
      vertex  1.099694e+001 -2.595624e-001  1.776357e-015
      vertex -1.024497e+001  4.005083e+000  1.776357e-015
      vertex -1.099694e+001  2.595624e-001  1.776357e-015
    endloop
  endfacet
  facet normal  0.000000e+000  0.000000e+000  1.000000e+000
    outer loop
      vertex  1.099694e+001 -2.595624e-001  1.776357e-015
      vertex -1.099694e+001  2.595624e-001  1.776357e-015
      vertex  1.024497e+001 -4.005083e+000  1.776357e-015
    endloop
  endfacet
  facet normal  0.000000e+000  0.000000e+000  1.000000e+000
    outer loop
      vertex  1.024497e+001 -4.005083e+000  1.776357e-015
      vertex -1.099694e+001  2.595624e-001  1.776357e-015
      vertex -1.042252e+001 -3.517265e+000  1.776357e-015
    endloop
  endfacet
  facet normal  0.000000e+000  0.000000e+000  1.000000e+000
    outer loop
      vertex  1.024497e+001 -4.005083e+000  1.776357e-015
      vertex -1.042252e+001 -3.517265e+000  1.776357e-015
      vertex  8.257299e+000 -7.267531e+000  1.776357e-015
    endloop
  endfacet
  facet normal  0.000000e+000  0.000000e+000  1.000000e+000
    outer loop
      vertex  8.257299e+000 -7.267531e+000  1.776357e-015
      vertex -1.042252e+001 -3.517265e+000  1.776357e-015
      vertex -8.590986e+000 -6.869859e+000  1.776357e-015
    endloop
  endfacet
  facet normal  0.000000e+000  0.000000e+000  1.000000e+000
    outer loop
      vertex  8.257299e+000 -7.267531e+000  1.776357e-015
      vertex -8.590986e+000 -6.869859e+000  1.776357e-015
      vertex  5.273681e+000 -9.653408e+000  1.776357e-015
    endloop
  endfacet
  facet normal  0.000000e+000  0.000000e+000  9.999999e-001
    outer loop
      vertex  5.273681e+000 -9.653408e+000  1.776357e-015
      vertex -8.590986e+000 -6.869859e+000  1.776357e-015
      vertex -5.723256e+000 -9.393846e+000  1.776357e-015
    endloop
  endfacet
  facet normal  0.000000e+000  0.000000e+000  1.000000e+000
    outer loop
      vertex  5.273681e+000 -9.653408e+000  1.776357e-015
      vertex -5.723256e+000 -9.393846e+000  1.776357e-015
      vertex  1.653979e+000 -1.087494e+001  1.776357e-015
    endloop
  endfacet
  facet normal  0.000000e+000  0.000000e+000  1.000000e+000
    outer loop
      vertex  1.653979e+000 -1.087494e+001  1.776357e-015
      vertex -5.723256e+000 -9.393846e+000  1.776357e-015
      vertex -2.165217e+000 -1.078480e+001  1.776357e-015
    endloop
  endfacet
  facet normal  0.000000e+000  0.000000e+000 -1.000000e+000
    outer loop
      vertex  1.149680e+001 -2.713607e-001 -1.000000e+000
      vertex -1.071065e+001  4.187132e+000 -1.000000e+000
      vertex  1.089627e+001  3.677141e+000 -1.000000e+000
    endloop
  endfacet
  facet normal  0.000000e+000  0.000000e+000 -1.000000e+000
    outer loop
      vertex  1.089627e+001  3.677141e+000 -1.000000e+000
      vertex -1.071065e+001  4.187132e+000 -1.000000e+000
      vertex -8.632631e+000  7.597874e+000 -1.000000e+000
    endloop
  endfacet
  facet normal  0.000000e+000  0.000000e+000 -1.000000e+000
    outer loop
      vertex  1.089627e+001  3.677141e+000 -1.000000e+000
      vertex -8.632631e+000  7.597874e+000 -1.000000e+000
      vertex  8.981485e+000  7.182125e+000 -1.000000e+000
    endloop
  endfacet
  facet normal  0.000000e+000  0.000000e+000 -9.999999e-001
    outer loop
      vertex  8.981485e+000  7.182125e+000 -1.000000e+000
      vertex -8.632631e+000  7.597874e+000 -1.000000e+000
      vertex -5.513394e+000  1.009220e+001 -1.000000e+000
    endloop
  endfacet
  facet normal  0.000000e+000  0.000000e+000 -1.000000e+000
    outer loop
      vertex  8.981485e+000  7.182125e+000 -1.000000e+000
      vertex -5.513394e+000  1.009220e+001 -1.000000e+000
      vertex  5.983404e+000  9.820839e+000 -1.000000e+000
    endloop
  endfacet
  facet normal  0.000000e+000  0.000000e+000 -1.000000e+000
    outer loop
      vertex  5.983404e+000  9.820839e+000 -1.000000e+000
      vertex -5.513394e+000  1.009220e+001 -1.000000e+000
      vertex -1.729160e+000  1.136926e+001 -1.000000e+000
    endloop
  endfacet
  facet normal  0.000000e+000  0.000000e+000 -1.000000e+000
    outer loop
      vertex  5.983404e+000  9.820839e+000 -1.000000e+000
      vertex -1.729160e+000  1.136926e+001 -1.000000e+000
      vertex  2.263636e+000  1.127501e+001 -1.000000e+000
    endloop
  endfacet
  facet normal  0.000000e+000  0.000000e+000 -9.999999e-001
    outer loop
      vertex -1.071065e+001  4.187132e+000 -1.000000e+000
      vertex  1.149680e+001 -2.713607e-001 -1.000000e+000
      vertex -1.149680e+001  2.713607e-001 -1.000000e+000
    endloop
  endfacet
  facet normal  0.000000e+000  0.000000e+000 -9.999999e-001
    outer loop
      vertex -1.149680e+001  2.713607e-001 -1.000000e+000
      vertex  1.149680e+001 -2.713607e-001 -1.000000e+000
      vertex  1.071065e+001 -4.187132e+000 -1.000000e+000
    endloop
  endfacet
  facet normal  0.000000e+000  0.000000e+000 -1.000000e+000
    outer loop
      vertex -1.149680e+001  2.713607e-001 -1.000000e+000
      vertex  1.071065e+001 -4.187132e+000 -1.000000e+000
      vertex -1.089627e+001 -3.677141e+000 -1.000000e+000
    endloop
  endfacet
  facet normal  0.000000e+000  0.000000e+000 -1.000000e+000
    outer loop
      vertex -1.089627e+001 -3.677141e+000 -1.000000e+000
      vertex  1.071065e+001 -4.187132e+000 -1.000000e+000
      vertex  8.632631e+000 -7.597874e+000 -1.000000e+000
    endloop
  endfacet
  facet normal  0.000000e+000  0.000000e+000 -1.000000e+000
    outer loop
      vertex -1.089627e+001 -3.677141e+000 -1.000000e+000
      vertex  8.632631e+000 -7.597874e+000 -1.000000e+000
      vertex -8.981485e+000 -7.182125e+000 -1.000000e+000
    endloop
  endfacet
  facet normal  0.000000e+000  0.000000e+000 -9.999999e-001
    outer loop
      vertex -8.981485e+000 -7.182125e+000 -1.000000e+000
      vertex  8.632631e+000 -7.597874e+000 -1.000000e+000
      vertex  5.513394e+000 -1.009220e+001 -1.000000e+000
    endloop
  endfacet
  facet normal  0.000000e+000  0.000000e+000 -1.000000e+000
    outer loop
      vertex -8.981485e+000 -7.182125e+000 -1.000000e+000
      vertex  5.513394e+000 -1.009220e+001 -1.000000e+000
      vertex -5.983404e+000 -9.820839e+000 -1.000000e+000
    endloop
  endfacet
  facet normal  0.000000e+000  0.000000e+000 -1.000000e+000
    outer loop
      vertex -5.983404e+000 -9.820839e+000 -1.000000e+000
      vertex  5.513394e+000 -1.009220e+001 -1.000000e+000
      vertex  1.729160e+000 -1.136926e+001 -1.000000e+000
    endloop
  endfacet
  facet normal  0.000000e+000  0.000000e+000 -1.000000e+000
    outer loop
      vertex -5.983404e+000 -9.820839e+000 -1.000000e+000
      vertex  1.729160e+000 -1.136926e+001 -1.000000e+000
      vertex -2.263636e+000 -1.127501e+001 -1.000000e+000
    endloop
  endfacet
  facet normal  3.197514e-001 -9.475015e-001  0.000000e+000
    outer loop
      vertex  5.513394e+000 -1.009220e+001 -1.000000e+000
      vertex  5.513394e+000 -1.009220e+001  8.000000e+000
      vertex  1.729160e+000 -1.136926e+001 -1.000000e+000
    endloop
  endfacet
  facet normal  3.197514e-001 -9.475015e-001  0.000000e+000
    outer loop
      vertex  1.729160e+000 -1.136926e+001 -1.000000e+000
      vertex  5.513394e+000 -1.009220e+001  8.000000e+000
      vertex  1.729160e+000 -1.136926e+001  8.000000e+000
    endloop
  endfacet
  facet normal -2.359646e-002 -9.997216e-001  -0.000000e+000
    outer loop
      vertex  1.729160e+000 -1.136926e+001 -1.000000e+000
      vertex  1.729160e+000 -1.136926e+001  8.000000e+000
      vertex -2.263636e+000 -1.127501e+001 -1.000000e+000
    endloop
  endfacet
  facet normal -2.359646e-002 -9.997216e-001  0.000000e+000
    outer loop
      vertex -2.263636e+000 -1.127501e+001 -1.000000e+000
      vertex  1.729160e+000 -1.136926e+001  8.000000e+000
      vertex -2.263636e+000 -1.127501e+001  8.000000e+000
    endloop
  endfacet
  facet normal -3.640985e-001 -9.313605e-001  -0.000000e+000
    outer loop
      vertex -2.263636e+000 -1.127501e+001 -1.000000e+000
      vertex -2.263636e+000 -1.127501e+001  8.000000e+000
      vertex -5.983404e+000 -9.820839e+000 -1.000000e+000
    endloop
  endfacet
  facet normal -3.640985e-001 -9.313605e-001  0.000000e+000
    outer loop
      vertex -5.983404e+000 -9.820839e+000 -1.000000e+000
      vertex -2.263636e+000 -1.127501e+001  8.000000e+000
      vertex -5.983404e+000 -9.820839e+000  8.000000e+000
    endloop
  endfacet
  facet normal -6.606847e-001 -7.506636e-001  -0.000000e+000
    outer loop
      vertex -5.983404e+000 -9.820839e+000 -1.000000e+000
      vertex -5.983404e+000 -9.820839e+000  8.000000e+000
      vertex -8.981485e+000 -7.182125e+000 -1.000000e+000
    endloop
  endfacet
  facet normal -6.606847e-001 -7.506636e-001  0.000000e+000
    outer loop
      vertex -8.981485e+000 -7.182125e+000 -1.000000e+000
      vertex -5.983404e+000 -9.820839e+000  8.000000e+000
      vertex -8.981485e+000 -7.182125e+000  8.000000e+000
    endloop
  endfacet
  facet normal -8.775826e-001 -4.794255e-001  -0.000000e+000
    outer loop
      vertex -8.981485e+000 -7.182125e+000 -1.000000e+000
      vertex -8.981485e+000 -7.182125e+000  8.000000e+000
      vertex -1.089627e+001 -3.677141e+000 -1.000000e+000
    endloop
  endfacet
  facet normal -8.775826e-001 -4.794255e-001  0.000000e+000
    outer loop
      vertex -1.089627e+001 -3.677141e+000 -1.000000e+000
      vertex -8.981485e+000 -7.182125e+000  8.000000e+000
      vertex -1.089627e+001 -3.677141e+000  8.000000e+000
    endloop
  endfacet
  facet normal -9.886311e-001 -1.503617e-001  -0.000000e+000
    outer loop
      vertex -1.089627e+001 -3.677141e+000 -1.000000e+000
      vertex -1.089627e+001 -3.677141e+000  8.000000e+000
      vertex -1.149680e+001  2.713607e-001 -1.000000e+000
    endloop
  endfacet
  facet normal -9.886311e-001 -1.503617e-001  0.000000e+000
    outer loop
      vertex -1.149680e+001  2.713607e-001 -1.000000e+000
      vertex -1.089627e+001 -3.677141e+000  8.000000e+000
      vertex -1.149680e+001  2.713607e-001  8.000000e+000
    endloop
  endfacet
  facet normal -9.804361e-001  1.968377e-001  0.000000e+000
    outer loop
      vertex -1.149680e+001  2.713607e-001 -1.000000e+000
      vertex -1.149680e+001  2.713607e-001  8.000000e+000
      vertex -1.071065e+001  4.187132e+000 -1.000000e+000
    endloop
  endfacet
  facet normal -9.804361e-001  1.968377e-001  0.000000e+000
    outer loop
      vertex -1.071065e+001  4.187132e+000 -1.000000e+000
      vertex -1.149680e+001  2.713607e-001  8.000000e+000
      vertex -1.071065e+001  4.187132e+000  8.000000e+000
    endloop
  endfacet
  facet normal -8.539860e-001  5.202960e-001  0.000000e+000
    outer loop
      vertex -1.071065e+001  4.187132e+000 -1.000000e+000
      vertex -1.071065e+001  4.187132e+000  8.000000e+000
      vertex -8.632631e+000  7.597874e+000 -1.000000e+000
    endloop
  endfacet
  facet normal -8.539860e-001  5.202960e-001  0.000000e+000
    outer loop
      vertex -8.632631e+000  7.597874e+000 -1.000000e+000
      vertex -1.071065e+001  4.187132e+000  8.000000e+000
      vertex -8.632631e+000  7.597874e+000  8.000000e+000
    endloop
  endfacet
  facet normal -6.245325e-001  7.809988e-001  0.000000e+000
    outer loop
      vertex -8.632631e+000  7.597874e+000 -1.000000e+000
      vertex -8.632631e+000  7.597874e+000  8.000000e+000
      vertex -5.513394e+000  1.009220e+001 -1.000000e+000
    endloop
  endfacet
  facet normal -6.245325e-001  7.809988e-001  0.000000e+000
    outer loop
      vertex -5.513394e+000  1.009220e+001 -1.000000e+000
      vertex -8.632631e+000  7.597874e+000  8.000000e+000
      vertex -5.513394e+000  1.009220e+001  8.000000e+000
    endloop
  endfacet
  facet normal -3.197514e-001  9.475015e-001  0.000000e+000
    outer loop
      vertex -5.513394e+000  1.009220e+001 -1.000000e+000
      vertex -5.513394e+000  1.009220e+001  8.000000e+000
      vertex -1.729160e+000  1.136926e+001 -1.000000e+000
    endloop
  endfacet
  facet normal -3.197514e-001  9.475015e-001  0.000000e+000
    outer loop
      vertex -1.729160e+000  1.136926e+001 -1.000000e+000
      vertex -5.513394e+000  1.009220e+001  8.000000e+000
      vertex -1.729160e+000  1.136926e+001  8.000000e+000
    endloop
  endfacet
  facet normal  2.359646e-002  9.997216e-001  0.000000e+000
    outer loop
      vertex -1.729160e+000  1.136926e+001 -1.000000e+000
      vertex -1.729160e+000  1.136926e+001  8.000000e+000
      vertex  2.263636e+000  1.127501e+001 -1.000000e+000
    endloop
  endfacet
  facet normal  2.359646e-002  9.997216e-001  -0.000000e+000
    outer loop
      vertex  2.263636e+000  1.127501e+001 -1.000000e+000
      vertex -1.729160e+000  1.136926e+001  8.000000e+000
      vertex  2.263636e+000  1.127501e+001  8.000000e+000
    endloop
  endfacet
  facet normal  3.640985e-001  9.313605e-001  0.000000e+000
    outer loop
      vertex  2.263636e+000  1.127501e+001 -1.000000e+000
      vertex  2.263636e+000  1.127501e+001  8.000000e+000
      vertex  5.983404e+000  9.820839e+000 -1.000000e+000
    endloop
  endfacet
  facet normal  3.640985e-001  9.313605e-001  -0.000000e+000
    outer loop
      vertex  5.983404e+000  9.820839e+000 -1.000000e+000
      vertex  2.263636e+000  1.127501e+001  8.000000e+000
      vertex  5.983404e+000  9.820839e+000  8.000000e+000
    endloop
  endfacet
  facet normal  6.606847e-001  7.506636e-001  0.000000e+000
    outer loop
      vertex  5.983404e+000  9.820839e+000 -1.000000e+000
      vertex  5.983404e+000  9.820839e+000  8.000000e+000
      vertex  8.981485e+000  7.182125e+000 -1.000000e+000
    endloop
  endfacet
  facet normal  6.606847e-001  7.506636e-001  -0.000000e+000
    outer loop
      vertex  8.981485e+000  7.182125e+000 -1.000000e+000
      vertex  5.983404e+000  9.820839e+000  8.000000e+000
      vertex  8.981485e+000  7.182125e+000  8.000000e+000
    endloop
  endfacet
  facet normal  8.775826e-001  4.794255e-001  0.000000e+000
    outer loop
      vertex  8.981485e+000  7.182125e+000 -1.000000e+000
      vertex  8.981485e+000  7.182125e+000  8.000000e+000
      vertex  1.089627e+001  3.677141e+000 -1.000000e+000
    endloop
  endfacet
  facet normal  8.775826e-001  4.794255e-001  -0.000000e+000
    outer loop
      vertex  1.089627e+001  3.677141e+000 -1.000000e+000
      vertex  8.981485e+000  7.182125e+000  8.000000e+000
      vertex  1.089627e+001  3.677141e+000  8.000000e+000
    endloop
  endfacet
  facet normal  9.886311e-001  1.503617e-001  0.000000e+000
    outer loop
      vertex  1.089627e+001  3.677141e+000 -1.000000e+000
      vertex  1.089627e+001  3.677141e+000  8.000000e+000
      vertex  1.149680e+001 -2.713607e-001 -1.000000e+000
    endloop
  endfacet
  facet normal  9.886311e-001  1.503617e-001  -0.000000e+000
    outer loop
      vertex  1.149680e+001 -2.713607e-001 -1.000000e+000
      vertex  1.089627e+001  3.677141e+000  8.000000e+000
      vertex  1.149680e+001 -2.713607e-001  8.000000e+000
    endloop
  endfacet
  facet normal  9.804361e-001 -1.968377e-001  0.000000e+000
    outer loop
      vertex  1.149680e+001 -2.713607e-001 -1.000000e+000
      vertex  1.149680e+001 -2.713607e-001  8.000000e+000
      vertex  1.071065e+001 -4.187132e+000 -1.000000e+000
    endloop
  endfacet
  facet normal  9.804361e-001 -1.968377e-001  0.000000e+000
    outer loop
      vertex  1.071065e+001 -4.187132e+000 -1.000000e+000
      vertex  1.149680e+001 -2.713607e-001  8.000000e+000
      vertex  1.071065e+001 -4.187132e+000  8.000000e+000
    endloop
  endfacet
  facet normal  8.539860e-001 -5.202960e-001  0.000000e+000
    outer loop
      vertex  1.071065e+001 -4.187132e+000 -1.000000e+000
      vertex  1.071065e+001 -4.187132e+000  8.000000e+000
      vertex  8.632631e+000 -7.597874e+000 -1.000000e+000
    endloop
  endfacet
  facet normal  8.539860e-001 -5.202960e-001  0.000000e+000
    outer loop
      vertex  8.632631e+000 -7.597874e+000 -1.000000e+000
      vertex  1.071065e+001 -4.187132e+000  8.000000e+000
      vertex  8.632631e+000 -7.597874e+000  8.000000e+000
    endloop
  endfacet
  facet normal  6.245325e-001 -7.809988e-001  0.000000e+000
    outer loop
      vertex  8.632631e+000 -7.597874e+000 -1.000000e+000
      vertex  8.632631e+000 -7.597874e+000  8.000000e+000
      vertex  5.513394e+000 -1.009220e+001 -1.000000e+000
    endloop
  endfacet
  facet normal  6.245325e-001 -7.809988e-001  0.000000e+000
    outer loop
      vertex  5.513394e+000 -1.009220e+001 -1.000000e+000
      vertex  8.632631e+000 -7.597874e+000  8.000000e+000
      vertex  5.513394e+000 -1.009220e+001  8.000000e+000
    endloop
  endfacet
  facet normal  6.606846e-001  7.506636e-001  0.000000e+000
    outer loop
      vertex -8.590986e+000 -6.869859e+000  1.776357e-015
      vertex -5.723256e+000 -9.393846e+000  8.000000e+000
      vertex -5.723256e+000 -9.393846e+000  1.776357e-015
    endloop
  endfacet
  facet normal  3.640985e-001  9.313604e-001  -0.000000e+000
    outer loop
      vertex -5.723256e+000 -9.393846e+000  1.776357e-015
      vertex -5.723256e+000 -9.393846e+000  8.000000e+000
      vertex -2.165217e+000 -1.078480e+001  8.000000e+000
    endloop
  endfacet
  facet normal  3.640985e-001  9.313604e-001  0.000000e+000
    outer loop
      vertex -5.723256e+000 -9.393846e+000  1.776357e-015
      vertex -2.165217e+000 -1.078480e+001  8.000000e+000
      vertex -2.165217e+000 -1.078480e+001  1.776357e-015
    endloop
  endfacet
  facet normal  2.359659e-002  9.997215e-001  -0.000000e+000
    outer loop
      vertex -2.165217e+000 -1.078480e+001  1.776357e-015
      vertex -2.165217e+000 -1.078480e+001  8.000000e+000
      vertex  1.653979e+000 -1.087494e+001  8.000000e+000
    endloop
  endfacet
  facet normal  2.359659e-002  9.997215e-001  0.000000e+000
    outer loop
      vertex -2.165217e+000 -1.078480e+001  1.776357e-015
      vertex  1.653979e+000 -1.087494e+001  8.000000e+000
      vertex  1.653979e+000 -1.087494e+001  1.776357e-015
    endloop
  endfacet
  facet normal -3.197515e-001  9.475015e-001  0.000000e+000
    outer loop
      vertex  1.653979e+000 -1.087494e+001  1.776357e-015
      vertex  1.653979e+000 -1.087494e+001  8.000000e+000
      vertex  5.273681e+000 -9.653408e+000  8.000000e+000
    endloop
  endfacet
  facet normal -3.197515e-001  9.475015e-001  0.000000e+000
    outer loop
      vertex  1.653979e+000 -1.087494e+001  1.776357e-015
      vertex  5.273681e+000 -9.653408e+000  8.000000e+000
      vertex  5.273681e+000 -9.653408e+000  1.776357e-015
    endloop
  endfacet
  facet normal  6.606846e-001  7.506636e-001  -0.000000e+000
    outer loop
      vertex -5.723256e+000 -9.393846e+000  8.000000e+000
      vertex -8.590986e+000 -6.869859e+000  1.776357e-015
      vertex -8.590986e+000 -6.869859e+000  8.000000e+000
    endloop
  endfacet
  facet normal  8.775826e-001  4.794254e-001  0.000000e+000
    outer loop
      vertex -8.590986e+000 -6.869859e+000  8.000000e+000
      vertex -8.590986e+000 -6.869859e+000  1.776357e-015
      vertex -1.042252e+001 -3.517265e+000  1.776357e-015
    endloop
  endfacet
  facet normal  8.775826e-001  4.794254e-001  -0.000000e+000
    outer loop
      vertex -8.590986e+000 -6.869859e+000  8.000000e+000
      vertex -1.042252e+001 -3.517265e+000  1.776357e-015
      vertex -1.042252e+001 -3.517265e+000  8.000000e+000
    endloop
  endfacet
  facet normal  9.886310e-001  1.503617e-001  0.000000e+000
    outer loop
      vertex -1.042252e+001 -3.517265e+000  8.000000e+000
      vertex -1.042252e+001 -3.517265e+000  1.776357e-015
      vertex -1.099694e+001  2.595624e-001  1.776357e-015
    endloop
  endfacet
  facet normal  9.886310e-001  1.503617e-001  -0.000000e+000
    outer loop
      vertex -1.042252e+001 -3.517265e+000  8.000000e+000
      vertex -1.099694e+001  2.595624e-001  1.776357e-015
      vertex -1.099694e+001  2.595624e-001  8.000000e+000
    endloop
  endfacet
  facet normal  9.804360e-001 -1.968377e-001  0.000000e+000
    outer loop
      vertex -1.099694e+001  2.595624e-001  8.000000e+000
      vertex -1.099694e+001  2.595624e-001  1.776357e-015
      vertex -1.024497e+001  4.005083e+000  1.776357e-015
    endloop
  endfacet
  facet normal  9.804360e-001 -1.968377e-001  0.000000e+000
    outer loop
      vertex -1.099694e+001  2.595624e-001  8.000000e+000
      vertex -1.024497e+001  4.005083e+000  1.776357e-015
      vertex -1.024497e+001  4.005083e+000  8.000000e+000
    endloop
  endfacet
  facet normal  8.539860e-001 -5.202960e-001  0.000000e+000
    outer loop
      vertex -1.024497e+001  4.005083e+000  8.000000e+000
      vertex -1.024497e+001  4.005083e+000  1.776357e-015
      vertex -8.257299e+000  7.267531e+000  1.776357e-015
    endloop
  endfacet
  facet normal  8.539860e-001 -5.202960e-001  0.000000e+000
    outer loop
      vertex -1.024497e+001  4.005083e+000  8.000000e+000
      vertex -8.257299e+000  7.267531e+000  1.776357e-015
      vertex -8.257299e+000  7.267531e+000  8.000000e+000
    endloop
  endfacet
  facet normal  6.245325e-001 -7.809988e-001  0.000000e+000
    outer loop
      vertex -8.257299e+000  7.267531e+000  8.000000e+000
      vertex -8.257299e+000  7.267531e+000  1.776357e-015
      vertex -5.273681e+000  9.653408e+000  1.776357e-015
    endloop
  endfacet
  facet normal  6.245325e-001 -7.809988e-001  0.000000e+000
    outer loop
      vertex -8.257299e+000  7.267531e+000  8.000000e+000
      vertex -5.273681e+000  9.653408e+000  1.776357e-015
      vertex -5.273681e+000  9.653408e+000  8.000000e+000
    endloop
  endfacet
  facet normal -6.606846e-001 -7.506636e-001  -0.000000e+000
    outer loop
      vertex  8.590986e+000  6.869859e+000  1.776357e-015
      vertex  5.723256e+000  9.393846e+000  8.000000e+000
      vertex  5.723256e+000  9.393846e+000  1.776357e-015
    endloop
  endfacet
  facet normal -3.640985e-001 -9.313604e-001  0.000000e+000
    outer loop
      vertex  5.723256e+000  9.393846e+000  1.776357e-015
      vertex  5.723256e+000  9.393846e+000  8.000000e+000
      vertex  2.165217e+000  1.078480e+001  8.000000e+000
    endloop
  endfacet
  facet normal -3.640985e-001 -9.313604e-001  -0.000000e+000
    outer loop
      vertex  5.723256e+000  9.393846e+000  1.776357e-015
      vertex  2.165217e+000  1.078480e+001  8.000000e+000
      vertex  2.165217e+000  1.078480e+001  1.776357e-015
    endloop
  endfacet
  facet normal -2.359659e-002 -9.997215e-001  0.000000e+000
    outer loop
      vertex  2.165217e+000  1.078480e+001  1.776357e-015
      vertex  2.165217e+000  1.078480e+001  8.000000e+000
      vertex -1.653979e+000  1.087494e+001  8.000000e+000
    endloop
  endfacet
  facet normal -2.359659e-002 -9.997215e-001  -0.000000e+000
    outer loop
      vertex  2.165217e+000  1.078480e+001  1.776357e-015
      vertex -1.653979e+000  1.087494e+001  8.000000e+000
      vertex -1.653979e+000  1.087494e+001  1.776357e-015
    endloop
  endfacet
  facet normal  3.197515e-001 -9.475015e-001  0.000000e+000
    outer loop
      vertex -1.653979e+000  1.087494e+001  1.776357e-015
      vertex -1.653979e+000  1.087494e+001  8.000000e+000
      vertex -5.273681e+000  9.653408e+000  8.000000e+000
    endloop
  endfacet
  facet normal  3.197515e-001 -9.475015e-001  0.000000e+000
    outer loop
      vertex -1.653979e+000  1.087494e+001  1.776357e-015
      vertex -5.273681e+000  9.653408e+000  8.000000e+000
      vertex -5.273681e+000  9.653408e+000  1.776357e-015
    endloop
  endfacet
  facet normal -6.606846e-001 -7.506636e-001  0.000000e+000
    outer loop
      vertex  5.723256e+000  9.393846e+000  8.000000e+000
      vertex  8.590986e+000  6.869859e+000  1.776357e-015
      vertex  8.590986e+000  6.869859e+000  8.000000e+000
    endloop
  endfacet
  facet normal -8.775826e-001 -4.794254e-001  -0.000000e+000
    outer loop
      vertex  8.590986e+000  6.869859e+000  8.000000e+000
      vertex  8.590986e+000  6.869859e+000  1.776357e-015
      vertex  1.042252e+001  3.517265e+000  1.776357e-015
    endloop
  endfacet
  facet normal -8.775826e-001 -4.794254e-001  0.000000e+000
    outer loop
      vertex  8.590986e+000  6.869859e+000  8.000000e+000
      vertex  1.042252e+001  3.517265e+000  1.776357e-015
      vertex  1.042252e+001  3.517265e+000  8.000000e+000
    endloop
  endfacet
  facet normal -9.886310e-001 -1.503617e-001  -0.000000e+000
    outer loop
      vertex  1.042252e+001  3.517265e+000  8.000000e+000
      vertex  1.042252e+001  3.517265e+000  1.776357e-015
      vertex  1.099694e+001 -2.595624e-001  1.776357e-015
    endloop
  endfacet
  facet normal -9.886310e-001 -1.503617e-001  0.000000e+000
    outer loop
      vertex  1.042252e+001  3.517265e+000  8.000000e+000
      vertex  1.099694e+001 -2.595624e-001  1.776357e-015
      vertex  1.099694e+001 -2.595624e-001  8.000000e+000
    endloop
  endfacet
  facet normal -9.804360e-001  1.968377e-001  0.000000e+000
    outer loop
      vertex  1.099694e+001 -2.595624e-001  8.000000e+000
      vertex  1.099694e+001 -2.595624e-001  1.776357e-015
      vertex  1.024497e+001 -4.005083e+000  1.776357e-015
    endloop
  endfacet
  facet normal -9.804360e-001  1.968377e-001  0.000000e+000
    outer loop
      vertex  1.099694e+001 -2.595624e-001  8.000000e+000
      vertex  1.024497e+001 -4.005083e+000  1.776357e-015
      vertex  1.024497e+001 -4.005083e+000  8.000000e+000
    endloop
  endfacet
  facet normal -8.539860e-001  5.202960e-001  0.000000e+000
    outer loop
      vertex  1.024497e+001 -4.005083e+000  8.000000e+000
      vertex  1.024497e+001 -4.005083e+000  1.776357e-015
      vertex  8.257299e+000 -7.267531e+000  1.776357e-015
    endloop
  endfacet
  facet normal -8.539860e-001  5.202960e-001  0.000000e+000
    outer loop
      vertex  1.024497e+001 -4.005083e+000  8.000000e+000
      vertex  8.257299e+000 -7.267531e+000  1.776357e-015
      vertex  8.257299e+000 -7.267531e+000  8.000000e+000
    endloop
  endfacet
  facet normal -6.245325e-001  7.809988e-001  0.000000e+000
    outer loop
      vertex  8.257299e+000 -7.267531e+000  8.000000e+000
      vertex  8.257299e+000 -7.267531e+000  1.776357e-015
      vertex  5.273681e+000 -9.653408e+000  1.776357e-015
    endloop
  endfacet
  facet normal -6.245325e-001  7.809988e-001  0.000000e+000
    outer loop
      vertex  8.257299e+000 -7.267531e+000  8.000000e+000
      vertex  5.273681e+000 -9.653408e+000  1.776357e-015
      vertex  5.273681e+000 -9.653408e+000  8.000000e+000
    endloop
  endfacet
endsolid CATIA STL
