solid CATIA STL
  facet normal -9.876884e-001  1.564344e-001  0.000000e+000
    outer loop
      vertex -1.500000e+001  8.498309e-015  9.000000e+000
      vertex -1.500000e+001  8.498309e-015  1.100000e+001
      vertex -1.426585e+001  4.635255e+000  9.000000e+000
    endloop
  endfacet
  facet normal -9.876884e-001  1.564344e-001  0.000000e+000
    outer loop
      vertex -1.426585e+001  4.635255e+000  9.000000e+000
      vertex -1.500000e+001  8.498309e-015  1.100000e+001
      vertex -1.426585e+001  4.635255e+000  1.100000e+001
    endloop
  endfacet
  facet normal -8.910065e-001  4.539905e-001  0.000000e+000
    outer loop
      vertex -1.426585e+001  4.635255e+000  9.000000e+000
      vertex -1.426585e+001  4.635255e+000  1.100000e+001
      vertex -1.213525e+001  8.816779e+000  9.000000e+000
    endloop
  endfacet
  facet normal -8.910065e-001  4.539905e-001  0.000000e+000
    outer loop
      vertex -1.213525e+001  8.816779e+000  9.000000e+000
      vertex -1.426585e+001  4.635255e+000  1.100000e+001
      vertex -1.213525e+001  8.816779e+000  1.100000e+001
    endloop
  endfacet
  facet normal -7.071068e-001  7.071068e-001  0.000000e+000
    outer loop
      vertex -1.213525e+001  8.816779e+000  9.000000e+000
      vertex -1.213525e+001  8.816779e+000  1.100000e+001
      vertex -8.816779e+000  1.213525e+001  9.000000e+000
    endloop
  endfacet
  facet normal -7.071068e-001  7.071068e-001  0.000000e+000
    outer loop
      vertex -8.816779e+000  1.213525e+001  9.000000e+000
      vertex -1.213525e+001  8.816779e+000  1.100000e+001
      vertex -8.816779e+000  1.213525e+001  1.100000e+001
    endloop
  endfacet
  facet normal -4.539905e-001  8.910065e-001  0.000000e+000
    outer loop
      vertex -8.816779e+000  1.213525e+001  9.000000e+000
      vertex -8.816779e+000  1.213525e+001  1.100000e+001
      vertex -4.635255e+000  1.426585e+001  9.000000e+000
    endloop
  endfacet
  facet normal -4.539905e-001  8.910065e-001  0.000000e+000
    outer loop
      vertex -4.635255e+000  1.426585e+001  9.000000e+000
      vertex -8.816779e+000  1.213525e+001  1.100000e+001
      vertex -4.635255e+000  1.426585e+001  1.100000e+001
    endloop
  endfacet
  facet normal -1.564344e-001  9.876884e-001  0.000000e+000
    outer loop
      vertex -4.635255e+000  1.426585e+001  9.000000e+000
      vertex -4.635255e+000  1.426585e+001  1.100000e+001
      vertex  4.249154e-015  1.500000e+001  9.000000e+000
    endloop
  endfacet
  facet normal -1.564344e-001  9.876884e-001  0.000000e+000
    outer loop
      vertex  4.249154e-015  1.500000e+001  9.000000e+000
      vertex -4.635255e+000  1.426585e+001  1.100000e+001
      vertex  4.249154e-015  1.500000e+001  1.100000e+001
    endloop
  endfacet
  facet normal  1.564344e-001  9.876884e-001  0.000000e+000
    outer loop
      vertex  4.249154e-015  1.500000e+001  9.000000e+000
      vertex  4.249154e-015  1.500000e+001  1.100000e+001
      vertex  4.635255e+000  1.426585e+001  9.000000e+000
    endloop
  endfacet
  facet normal  1.564344e-001  9.876884e-001  -0.000000e+000
    outer loop
      vertex  4.635255e+000  1.426585e+001  9.000000e+000
      vertex  4.249154e-015  1.500000e+001  1.100000e+001
      vertex  4.635255e+000  1.426585e+001  1.100000e+001
    endloop
  endfacet
  facet normal  4.539905e-001  8.910065e-001  0.000000e+000
    outer loop
      vertex  4.635255e+000  1.426585e+001  9.000000e+000
      vertex  4.635255e+000  1.426585e+001  1.100000e+001
      vertex  8.816779e+000  1.213525e+001  9.000000e+000
    endloop
  endfacet
  facet normal  4.539905e-001  8.910065e-001  -0.000000e+000
    outer loop
      vertex  8.816779e+000  1.213525e+001  9.000000e+000
      vertex  4.635255e+000  1.426585e+001  1.100000e+001
      vertex  8.816779e+000  1.213525e+001  1.100000e+001
    endloop
  endfacet
  facet normal  7.071068e-001  7.071068e-001  0.000000e+000
    outer loop
      vertex  8.816779e+000  1.213525e+001  9.000000e+000
      vertex  8.816779e+000  1.213525e+001  1.100000e+001
      vertex  1.213525e+001  8.816779e+000  9.000000e+000
    endloop
  endfacet
  facet normal  7.071068e-001  7.071068e-001  -0.000000e+000
    outer loop
      vertex  1.213525e+001  8.816779e+000  9.000000e+000
      vertex  8.816779e+000  1.213525e+001  1.100000e+001
      vertex  1.213525e+001  8.816779e+000  1.100000e+001
    endloop
  endfacet
  facet normal  8.910065e-001  4.539905e-001  0.000000e+000
    outer loop
      vertex  1.213525e+001  8.816779e+000  9.000000e+000
      vertex  1.213525e+001  8.816779e+000  1.100000e+001
      vertex  1.426585e+001  4.635255e+000  9.000000e+000
    endloop
  endfacet
  facet normal  8.910065e-001  4.539905e-001  -0.000000e+000
    outer loop
      vertex  1.426585e+001  4.635255e+000  9.000000e+000
      vertex  1.213525e+001  8.816779e+000  1.100000e+001
      vertex  1.426585e+001  4.635255e+000  1.100000e+001
    endloop
  endfacet
  facet normal  9.876884e-001  1.564344e-001  0.000000e+000
    outer loop
      vertex  1.426585e+001  4.635255e+000  9.000000e+000
      vertex  1.426585e+001  4.635255e+000  1.100000e+001
      vertex  1.500000e+001  0.000000e+000  9.000000e+000
    endloop
  endfacet
  facet normal  9.876884e-001  1.564344e-001  -0.000000e+000
    outer loop
      vertex  1.500000e+001  0.000000e+000  9.000000e+000
      vertex  1.426585e+001  4.635255e+000  1.100000e+001
      vertex  1.500000e+001  0.000000e+000  1.100000e+001
    endloop
  endfacet
  facet normal  9.876884e-001 -1.564344e-001  0.000000e+000
    outer loop
      vertex  1.500000e+001  0.000000e+000  9.000000e+000
      vertex  1.500000e+001  0.000000e+000  1.100000e+001
      vertex  1.426585e+001 -4.635255e+000  9.000000e+000
    endloop
  endfacet
  facet normal  9.876884e-001 -1.564344e-001  0.000000e+000
    outer loop
      vertex  1.426585e+001 -4.635255e+000  9.000000e+000
      vertex  1.500000e+001  0.000000e+000  1.100000e+001
      vertex  1.426585e+001 -4.635255e+000  1.100000e+001
    endloop
  endfacet
  facet normal  8.910065e-001 -4.539905e-001  0.000000e+000
    outer loop
      vertex  1.426585e+001 -4.635255e+000  9.000000e+000
      vertex  1.426585e+001 -4.635255e+000  1.100000e+001
      vertex  1.213525e+001 -8.816779e+000  9.000000e+000
    endloop
  endfacet
  facet normal  8.910065e-001 -4.539905e-001  0.000000e+000
    outer loop
      vertex  1.213525e+001 -8.816779e+000  9.000000e+000
      vertex  1.426585e+001 -4.635255e+000  1.100000e+001
      vertex  1.213525e+001 -8.816779e+000  1.100000e+001
    endloop
  endfacet
  facet normal  7.071068e-001 -7.071068e-001  0.000000e+000
    outer loop
      vertex  1.213525e+001 -8.816779e+000  9.000000e+000
      vertex  1.213525e+001 -8.816779e+000  1.100000e+001
      vertex  8.816779e+000 -1.213525e+001  9.000000e+000
    endloop
  endfacet
  facet normal  7.071068e-001 -7.071068e-001  0.000000e+000
    outer loop
      vertex  8.816779e+000 -1.213525e+001  9.000000e+000
      vertex  1.213525e+001 -8.816779e+000  1.100000e+001
      vertex  8.816779e+000 -1.213525e+001  1.100000e+001
    endloop
  endfacet
  facet normal  4.539905e-001 -8.910065e-001  0.000000e+000
    outer loop
      vertex  8.816779e+000 -1.213525e+001  9.000000e+000
      vertex  8.816779e+000 -1.213525e+001  1.100000e+001
      vertex  4.635255e+000 -1.426585e+001  9.000000e+000
    endloop
  endfacet
  facet normal  4.539905e-001 -8.910065e-001  0.000000e+000
    outer loop
      vertex  4.635255e+000 -1.426585e+001  9.000000e+000
      vertex  8.816779e+000 -1.213525e+001  1.100000e+001
      vertex  4.635255e+000 -1.426585e+001  1.100000e+001
    endloop
  endfacet
  facet normal  1.564344e-001 -9.876884e-001  0.000000e+000
    outer loop
      vertex  4.635255e+000 -1.426585e+001  9.000000e+000
      vertex  4.635255e+000 -1.426585e+001  1.100000e+001
      vertex -1.607813e-014 -1.500000e+001  9.000000e+000
    endloop
  endfacet
  facet normal  1.564344e-001 -9.876884e-001  0.000000e+000
    outer loop
      vertex -1.607813e-014 -1.500000e+001  9.000000e+000
      vertex  4.635255e+000 -1.426585e+001  1.100000e+001
      vertex -1.607813e-014 -1.500000e+001  1.100000e+001
    endloop
  endfacet
  facet normal -1.564344e-001 -9.876884e-001  -0.000000e+000
    outer loop
      vertex -1.607813e-014 -1.500000e+001  9.000000e+000
      vertex -1.607813e-014 -1.500000e+001  1.100000e+001
      vertex -4.635255e+000 -1.426585e+001  9.000000e+000
    endloop
  endfacet
  facet normal -1.564344e-001 -9.876884e-001  0.000000e+000
    outer loop
      vertex -4.635255e+000 -1.426585e+001  9.000000e+000
      vertex -1.607813e-014 -1.500000e+001  1.100000e+001
      vertex -4.635255e+000 -1.426585e+001  1.100000e+001
    endloop
  endfacet
  facet normal -4.539905e-001 -8.910065e-001  -0.000000e+000
    outer loop
      vertex -4.635255e+000 -1.426585e+001  9.000000e+000
      vertex -4.635255e+000 -1.426585e+001  1.100000e+001
      vertex -8.816779e+000 -1.213525e+001  9.000000e+000
    endloop
  endfacet
  facet normal -4.539905e-001 -8.910065e-001  0.000000e+000
    outer loop
      vertex -8.816779e+000 -1.213525e+001  9.000000e+000
      vertex -4.635255e+000 -1.426585e+001  1.100000e+001
      vertex -8.816779e+000 -1.213525e+001  1.100000e+001
    endloop
  endfacet
  facet normal -7.071068e-001 -7.071068e-001  -0.000000e+000
    outer loop
      vertex -8.816779e+000 -1.213525e+001  9.000000e+000
      vertex -8.816779e+000 -1.213525e+001  1.100000e+001
      vertex -1.213525e+001 -8.816779e+000  9.000000e+000
    endloop
  endfacet
  facet normal -7.071068e-001 -7.071068e-001  0.000000e+000
    outer loop
      vertex -1.213525e+001 -8.816779e+000  9.000000e+000
      vertex -8.816779e+000 -1.213525e+001  1.100000e+001
      vertex -1.213525e+001 -8.816779e+000  1.100000e+001
    endloop
  endfacet
  facet normal -8.910065e-001 -4.539905e-001  -0.000000e+000
    outer loop
      vertex -1.213525e+001 -8.816779e+000  9.000000e+000
      vertex -1.213525e+001 -8.816779e+000  1.100000e+001
      vertex -1.426585e+001 -4.635255e+000  9.000000e+000
    endloop
  endfacet
  facet normal -8.910065e-001 -4.539905e-001  0.000000e+000
    outer loop
      vertex -1.426585e+001 -4.635255e+000  9.000000e+000
      vertex -1.213525e+001 -8.816779e+000  1.100000e+001
      vertex -1.426585e+001 -4.635255e+000  1.100000e+001
    endloop
  endfacet
  facet normal -9.876884e-001 -1.564344e-001  -0.000000e+000
    outer loop
      vertex -1.426585e+001 -4.635255e+000  9.000000e+000
      vertex -1.426585e+001 -4.635255e+000  1.100000e+001
      vertex -1.500000e+001  8.498309e-015  9.000000e+000
    endloop
  endfacet
  facet normal -9.876884e-001 -1.564344e-001  0.000000e+000
    outer loop
      vertex -1.500000e+001  8.498309e-015  9.000000e+000
      vertex -1.426585e+001 -4.635255e+000  1.100000e+001
      vertex -1.500000e+001  8.498309e-015  1.100000e+001
    endloop
  endfacet
  facet normal  0.000000e+000  0.000000e+000 -1.000000e+000
    outer loop
      vertex  4.249154e-015  1.500000e+001  9.000000e+000
      vertex  4.635255e+000  1.426585e+001  9.000000e+000
      vertex -4.635255e+000  1.426585e+001  9.000000e+000
    endloop
  endfacet
  facet normal  0.000000e+000  0.000000e+000 -1.000000e+000
    outer loop
      vertex -1.607813e-014 -1.500000e+001  9.000000e+000
      vertex -4.635255e+000 -1.426585e+001  9.000000e+000
      vertex  4.635255e+000 -1.426585e+001  9.000000e+000
    endloop
  endfacet
  facet normal  0.000000e+000  0.000000e+000 -9.999999e-001
    outer loop
      vertex  4.635255e+000 -1.426585e+001  9.000000e+000
      vertex -4.635255e+000 -1.426585e+001  9.000000e+000
      vertex -8.816779e+000 -1.213525e+001  9.000000e+000
    endloop
  endfacet
  facet normal  0.000000e+000  0.000000e+000 -1.000000e+000
    outer loop
      vertex  4.635255e+000 -1.426585e+001  9.000000e+000
      vertex -8.816779e+000 -1.213525e+001  9.000000e+000
      vertex  8.816779e+000 -1.213525e+001  9.000000e+000
    endloop
  endfacet
  facet normal  0.000000e+000  0.000000e+000 -1.000000e+000
    outer loop
      vertex  8.816779e+000 -1.213525e+001  9.000000e+000
      vertex -8.816779e+000 -1.213525e+001  9.000000e+000
      vertex -1.213525e+001 -8.816779e+000  9.000000e+000
    endloop
  endfacet
  facet normal  0.000000e+000  0.000000e+000 -1.000000e+000
    outer loop
      vertex  8.816779e+000 -1.213525e+001  9.000000e+000
      vertex -1.213525e+001 -8.816779e+000  9.000000e+000
      vertex  1.213525e+001 -8.816779e+000  9.000000e+000
    endloop
  endfacet
  facet normal  0.000000e+000  0.000000e+000 -1.000000e+000
    outer loop
      vertex  1.213525e+001 -8.816779e+000  9.000000e+000
      vertex -1.213525e+001 -8.816779e+000  9.000000e+000
      vertex -1.426585e+001 -4.635255e+000  9.000000e+000
    endloop
  endfacet
  facet normal  0.000000e+000  0.000000e+000 -1.000000e+000
    outer loop
      vertex  1.213525e+001 -8.816779e+000  9.000000e+000
      vertex -1.426585e+001 -4.635255e+000  9.000000e+000
      vertex  1.426585e+001 -4.635255e+000  9.000000e+000
    endloop
  endfacet
  facet normal  0.000000e+000  0.000000e+000 -1.000000e+000
    outer loop
      vertex  1.426585e+001 -4.635255e+000  9.000000e+000
      vertex -1.426585e+001 -4.635255e+000  9.000000e+000
      vertex -1.500000e+001  8.498309e-015  9.000000e+000
    endloop
  endfacet
  facet normal  0.000000e+000  0.000000e+000 -1.000000e+000
    outer loop
      vertex  1.426585e+001 -4.635255e+000  9.000000e+000
      vertex -1.500000e+001  8.498309e-015  9.000000e+000
      vertex  1.500000e+001  0.000000e+000  9.000000e+000
    endloop
  endfacet
  facet normal  0.000000e+000  0.000000e+000 -1.000000e+000
    outer loop
      vertex  1.500000e+001  0.000000e+000  9.000000e+000
      vertex -1.500000e+001  8.498309e-015  9.000000e+000
      vertex -1.426585e+001  4.635255e+000  9.000000e+000
    endloop
  endfacet
  facet normal  0.000000e+000  0.000000e+000 -1.000000e+000
    outer loop
      vertex  1.500000e+001  0.000000e+000  9.000000e+000
      vertex -1.426585e+001  4.635255e+000  9.000000e+000
      vertex  1.426585e+001  4.635255e+000  9.000000e+000
    endloop
  endfacet
  facet normal  0.000000e+000  0.000000e+000 -1.000000e+000
    outer loop
      vertex  1.426585e+001  4.635255e+000  9.000000e+000
      vertex -1.426585e+001  4.635255e+000  9.000000e+000
      vertex -1.213525e+001  8.816779e+000  9.000000e+000
    endloop
  endfacet
  facet normal  0.000000e+000  0.000000e+000 -1.000000e+000
    outer loop
      vertex  1.426585e+001  4.635255e+000  9.000000e+000
      vertex -1.213525e+001  8.816779e+000  9.000000e+000
      vertex  1.213525e+001  8.816779e+000  9.000000e+000
    endloop
  endfacet
  facet normal  0.000000e+000  0.000000e+000 -1.000000e+000
    outer loop
      vertex  1.213525e+001  8.816779e+000  9.000000e+000
      vertex -1.213525e+001  8.816779e+000  9.000000e+000
      vertex -8.816779e+000  1.213525e+001  9.000000e+000
    endloop
  endfacet
  facet normal  0.000000e+000  0.000000e+000 -1.000000e+000
    outer loop
      vertex  1.213525e+001  8.816779e+000  9.000000e+000
      vertex -8.816779e+000  1.213525e+001  9.000000e+000
      vertex  8.816779e+000  1.213525e+001  9.000000e+000
    endloop
  endfacet
  facet normal  0.000000e+000  0.000000e+000 -1.000000e+000
    outer loop
      vertex  8.816779e+000  1.213525e+001  9.000000e+000
      vertex -8.816779e+000  1.213525e+001  9.000000e+000
      vertex -4.635255e+000  1.426585e+001  9.000000e+000
    endloop
  endfacet
  facet normal  0.000000e+000  0.000000e+000 -9.999999e-001
    outer loop
      vertex  8.816779e+000  1.213525e+001  9.000000e+000
      vertex -4.635255e+000  1.426585e+001  9.000000e+000
      vertex  4.635255e+000  1.426585e+001  9.000000e+000
    endloop
  endfacet
  facet normal  0.000000e+000  -0.000000e+000  9.999999e-001
    outer loop
      vertex -1.426585e+001 -4.635255e+000  1.100000e+001
      vertex -1.213525e+001 -8.816779e+000  1.100000e+001
      vertex  3.061617e-016 -5.000000e+000  1.100000e+001
    endloop
  endfacet
  facet normal  0.000000e+000  0.000000e+000  1.000000e+000
    outer loop
      vertex -1.426585e+001 -4.635255e+000  1.100000e+001
      vertex  3.061617e-016 -5.000000e+000  1.100000e+001
      vertex -2.500000e+000 -4.330127e+000  1.100000e+001
    endloop
  endfacet
  facet normal  0.000000e+000  0.000000e+000  1.000000e+000
    outer loop
      vertex -1.426585e+001 -4.635255e+000  1.100000e+001
      vertex -2.500000e+000 -4.330127e+000  1.100000e+001
      vertex -4.330127e+000 -2.500000e+000  1.100000e+001
    endloop
  endfacet
  facet normal  0.000000e+000  0.000000e+000  1.000000e+000
    outer loop
      vertex -1.426585e+001 -4.635255e+000  1.100000e+001
      vertex -4.330127e+000 -2.500000e+000  1.100000e+001
      vertex -5.000000e+000 -6.123234e-016  1.100000e+001
    endloop
  endfacet
  facet normal  0.000000e+000  0.000000e+000  1.000000e+000
    outer loop
      vertex -1.426585e+001 -4.635255e+000  1.100000e+001
      vertex -5.000000e+000 -6.123234e-016  1.100000e+001
      vertex -1.500000e+001  8.498309e-015  1.100000e+001
    endloop
  endfacet
  facet normal  0.000000e+000  -0.000000e+000  1.000000e+000
    outer loop
      vertex -9.184850e-016  5.000000e+000  1.100000e+001
      vertex  2.500000e+000  4.330127e+000  1.100000e+001
      vertex  1.426585e+001  4.635255e+000  1.100000e+001
    endloop
  endfacet
  facet normal  0.000000e+000  0.000000e+000  1.000000e+000
    outer loop
      vertex -9.184850e-016  5.000000e+000  1.100000e+001
      vertex  1.426585e+001  4.635255e+000  1.100000e+001
      vertex  1.213525e+001  8.816779e+000  1.100000e+001
    endloop
  endfacet
  facet normal  0.000000e+000  0.000000e+000  9.999999e-001
    outer loop
      vertex -9.184850e-016  5.000000e+000  1.100000e+001
      vertex  1.213525e+001  8.816779e+000  1.100000e+001
      vertex  8.816779e+000  1.213525e+001  1.100000e+001
    endloop
  endfacet
  facet normal  0.000000e+000  0.000000e+000  1.000000e+000
    outer loop
      vertex -9.184850e-016  5.000000e+000  1.100000e+001
      vertex  8.816779e+000  1.213525e+001  1.100000e+001
      vertex  4.635255e+000  1.426585e+001  1.100000e+001
    endloop
  endfacet
  facet normal  0.000000e+000  0.000000e+000  1.000000e+000
    outer loop
      vertex -9.184850e-016  5.000000e+000  1.100000e+001
      vertex  4.635255e+000  1.426585e+001  1.100000e+001
      vertex  4.249154e-015  1.500000e+001  1.100000e+001
    endloop
  endfacet
  facet normal  0.000000e+000  0.000000e+000  1.000000e+000
    outer loop
      vertex -9.184850e-016  5.000000e+000  1.100000e+001
      vertex  4.249154e-015  1.500000e+001  1.100000e+001
      vertex -4.635255e+000  1.426585e+001  1.100000e+001
    endloop
  endfacet
  facet normal  0.000000e+000  0.000000e+000  1.000000e+000
    outer loop
      vertex -9.184850e-016  5.000000e+000  1.100000e+001
      vertex -4.635255e+000  1.426585e+001  1.100000e+001
      vertex -8.816779e+000  1.213525e+001  1.100000e+001
    endloop
  endfacet
  facet normal  0.000000e+000  0.000000e+000  9.999999e-001
    outer loop
      vertex -9.184850e-016  5.000000e+000  1.100000e+001
      vertex -8.816779e+000  1.213525e+001  1.100000e+001
      vertex -1.213525e+001  8.816779e+000  1.100000e+001
    endloop
  endfacet
  facet normal  0.000000e+000  0.000000e+000  9.999999e-001
    outer loop
      vertex -9.184850e-016  5.000000e+000  1.100000e+001
      vertex -1.213525e+001  8.816779e+000  1.100000e+001
      vertex -1.426585e+001  4.635255e+000  1.100000e+001
    endloop
  endfacet
  facet normal  -0.000000e+000  0.000000e+000  1.000000e+000
    outer loop
      vertex -9.184850e-016  5.000000e+000  1.100000e+001
      vertex -1.426585e+001  4.635255e+000  1.100000e+001
      vertex -2.500000e+000  4.330127e+000  1.100000e+001
    endloop
  endfacet
  facet normal  0.000000e+000  0.000000e+000  1.000000e+000
    outer loop
      vertex -2.500000e+000  4.330127e+000  1.100000e+001
      vertex -1.426585e+001  4.635255e+000  1.100000e+001
      vertex -4.330127e+000  2.500000e+000  1.100000e+001
    endloop
  endfacet
  facet normal  0.000000e+000  0.000000e+000  1.000000e+000
    outer loop
      vertex -4.330127e+000  2.500000e+000  1.100000e+001
      vertex -1.426585e+001  4.635255e+000  1.100000e+001
      vertex -1.500000e+001  8.498309e-015  1.100000e+001
    endloop
  endfacet
  facet normal  -0.000000e+000  0.000000e+000  1.000000e+000
    outer loop
      vertex -4.330127e+000  2.500000e+000  1.100000e+001
      vertex -1.500000e+001  8.498309e-015  1.100000e+001
      vertex -5.000000e+000 -6.123234e-016  1.100000e+001
    endloop
  endfacet
  facet normal  0.000000e+000  0.000000e+000  1.000000e+000
    outer loop
      vertex -8.816779e+000 -1.213525e+001  1.100000e+001
      vertex -4.635255e+000 -1.426585e+001  1.100000e+001
      vertex -1.213525e+001 -8.816779e+000  1.100000e+001
    endloop
  endfacet
  facet normal  0.000000e+000  0.000000e+000  1.000000e+000
    outer loop
      vertex -1.213525e+001 -8.816779e+000  1.100000e+001
      vertex -4.635255e+000 -1.426585e+001  1.100000e+001
      vertex -1.607813e-014 -1.500000e+001  1.100000e+001
    endloop
  endfacet
  facet normal  0.000000e+000  -0.000000e+000  9.999999e-001
    outer loop
      vertex -1.213525e+001 -8.816779e+000  1.100000e+001
      vertex -1.607813e-014 -1.500000e+001  1.100000e+001
      vertex  3.061617e-016 -5.000000e+000  1.100000e+001
    endloop
  endfacet
  facet normal  -0.000000e+000  0.000000e+000  1.000000e+000
    outer loop
      vertex  1.426585e+001  4.635255e+000  1.100000e+001
      vertex  2.500000e+000  4.330127e+000  1.100000e+001
      vertex  1.500000e+001  0.000000e+000  1.100000e+001
    endloop
  endfacet
  facet normal  0.000000e+000  0.000000e+000  1.000000e+000
    outer loop
      vertex  1.500000e+001  0.000000e+000  1.100000e+001
      vertex  2.500000e+000  4.330127e+000  1.100000e+001
      vertex  4.330127e+000  2.500000e+000  1.100000e+001
    endloop
  endfacet
  facet normal  0.000000e+000  0.000000e+000  1.000000e+000
    outer loop
      vertex  1.500000e+001  0.000000e+000  1.100000e+001
      vertex  4.330127e+000  2.500000e+000  1.100000e+001
      vertex  5.000000e+000  0.000000e+000  1.100000e+001
    endloop
  endfacet
  facet normal  -0.000000e+000  0.000000e+000  1.000000e+000
    outer loop
      vertex  1.500000e+001  0.000000e+000  1.100000e+001
      vertex  5.000000e+000  0.000000e+000  1.100000e+001
      vertex  1.426585e+001 -4.635255e+000  1.100000e+001
    endloop
  endfacet
  facet normal  0.000000e+000  0.000000e+000  1.000000e+000
    outer loop
      vertex  1.426585e+001 -4.635255e+000  1.100000e+001
      vertex  5.000000e+000  0.000000e+000  1.100000e+001
      vertex  4.330127e+000 -2.500000e+000  1.100000e+001
    endloop
  endfacet
  facet normal  0.000000e+000  0.000000e+000  1.000000e+000
    outer loop
      vertex  1.426585e+001 -4.635255e+000  1.100000e+001
      vertex  4.330127e+000 -2.500000e+000  1.100000e+001
      vertex  2.500000e+000 -4.330127e+000  1.100000e+001
    endloop
  endfacet
  facet normal  0.000000e+000  0.000000e+000  1.000000e+000
    outer loop
      vertex  1.426585e+001 -4.635255e+000  1.100000e+001
      vertex  2.500000e+000 -4.330127e+000  1.100000e+001
      vertex  1.213525e+001 -8.816779e+000  1.100000e+001
    endloop
  endfacet
  facet normal  0.000000e+000  0.000000e+000  1.000000e+000
    outer loop
      vertex  1.213525e+001 -8.816779e+000  1.100000e+001
      vertex  2.500000e+000 -4.330127e+000  1.100000e+001
      vertex  3.061617e-016 -5.000000e+000  1.100000e+001
    endloop
  endfacet
  facet normal  0.000000e+000  0.000000e+000  1.000000e+000
    outer loop
      vertex  1.213525e+001 -8.816779e+000  1.100000e+001
      vertex  3.061617e-016 -5.000000e+000  1.100000e+001
      vertex  8.816779e+000 -1.213525e+001  1.100000e+001
    endloop
  endfacet
  facet normal  0.000000e+000  0.000000e+000  1.000000e+000
    outer loop
      vertex  8.816779e+000 -1.213525e+001  1.100000e+001
      vertex  3.061617e-016 -5.000000e+000  1.100000e+001
      vertex -1.607813e-014 -1.500000e+001  1.100000e+001
    endloop
  endfacet
  facet normal  0.000000e+000  0.000000e+000  1.000000e+000
    outer loop
      vertex  8.816779e+000 -1.213525e+001  1.100000e+001
      vertex -1.607813e-014 -1.500000e+001  1.100000e+001
      vertex  4.635255e+000 -1.426585e+001  1.100000e+001
    endloop
  endfacet
  facet normal  0.000000e+000  0.000000e+000  1.000000e+000
    outer loop
      vertex  3.061617e-016 -5.000000e+000  1.200000e+001
      vertex  2.500000e+000 -4.330127e+000  1.200000e+001
      vertex -2.500000e+000 -4.330127e+000  1.200000e+001
    endloop
  endfacet
  facet normal  0.000000e+000  0.000000e+000  1.000000e+000
    outer loop
      vertex -9.184850e-016  5.000000e+000  1.200000e+001
      vertex -2.500000e+000  4.330127e+000  1.200000e+001
      vertex  2.500000e+000  4.330127e+000  1.200000e+001
    endloop
  endfacet
  facet normal  0.000000e+000  0.000000e+000  1.000000e+000
    outer loop
      vertex  2.500000e+000  4.330127e+000  1.200000e+001
      vertex -2.500000e+000  4.330127e+000  1.200000e+001
      vertex -4.330127e+000  2.500000e+000  1.200000e+001
    endloop
  endfacet
  facet normal  0.000000e+000  0.000000e+000  1.000000e+000
    outer loop
      vertex  2.500000e+000  4.330127e+000  1.200000e+001
      vertex -4.330127e+000  2.500000e+000  1.200000e+001
      vertex  4.330127e+000  2.500000e+000  1.200000e+001
    endloop
  endfacet
  facet normal  0.000000e+000  0.000000e+000  1.000000e+000
    outer loop
      vertex  4.330127e+000  2.500000e+000  1.200000e+001
      vertex -4.330127e+000  2.500000e+000  1.200000e+001
      vertex -5.000000e+000 -6.123234e-016  1.200000e+001
    endloop
  endfacet
  facet normal  0.000000e+000  0.000000e+000  1.000000e+000
    outer loop
      vertex  4.330127e+000  2.500000e+000  1.200000e+001
      vertex -5.000000e+000 -6.123234e-016  1.200000e+001
      vertex  5.000000e+000  0.000000e+000  1.200000e+001
    endloop
  endfacet
  facet normal  0.000000e+000  0.000000e+000  1.000000e+000
    outer loop
      vertex  5.000000e+000  0.000000e+000  1.200000e+001
      vertex -5.000000e+000 -6.123234e-016  1.200000e+001
      vertex -4.330127e+000 -2.500000e+000  1.200000e+001
    endloop
  endfacet
  facet normal  0.000000e+000  0.000000e+000  1.000000e+000
    outer loop
      vertex  5.000000e+000  0.000000e+000  1.200000e+001
      vertex -4.330127e+000 -2.500000e+000  1.200000e+001
      vertex  4.330127e+000 -2.500000e+000  1.200000e+001
    endloop
  endfacet
  facet normal  0.000000e+000  0.000000e+000  1.000000e+000
    outer loop
      vertex  4.330127e+000 -2.500000e+000  1.200000e+001
      vertex -4.330127e+000 -2.500000e+000  1.200000e+001
      vertex -2.500000e+000 -4.330127e+000  1.200000e+001
    endloop
  endfacet
  facet normal  0.000000e+000  0.000000e+000  1.000000e+000
    outer loop
      vertex  4.330127e+000 -2.500000e+000  1.200000e+001
      vertex -2.500000e+000 -4.330127e+000  1.200000e+001
      vertex  2.500000e+000 -4.330127e+000  1.200000e+001
    endloop
  endfacet
  facet normal  9.659259e-001  2.588190e-001  -0.000000e+000
    outer loop
      vertex  5.000000e+000  0.000000e+000  1.200000e+001
      vertex  5.000000e+000  0.000000e+000  1.100000e+001
      vertex  4.330127e+000  2.500000e+000  1.200000e+001
    endloop
  endfacet
  facet normal  9.659259e-001  2.588190e-001  0.000000e+000
    outer loop
      vertex  4.330127e+000  2.500000e+000  1.200000e+001
      vertex  5.000000e+000  0.000000e+000  1.100000e+001
      vertex  4.330127e+000  2.500000e+000  1.100000e+001
    endloop
  endfacet
  facet normal  7.071068e-001  7.071068e-001  -0.000000e+000
    outer loop
      vertex  4.330127e+000  2.500000e+000  1.200000e+001
      vertex  4.330127e+000  2.500000e+000  1.100000e+001
      vertex  2.500000e+000  4.330127e+000  1.200000e+001
    endloop
  endfacet
  facet normal  7.071068e-001  7.071068e-001  0.000000e+000
    outer loop
      vertex  2.500000e+000  4.330127e+000  1.200000e+001
      vertex  4.330127e+000  2.500000e+000  1.100000e+001
      vertex  2.500000e+000  4.330127e+000  1.100000e+001
    endloop
  endfacet
  facet normal  2.588190e-001  9.659259e-001  -0.000000e+000
    outer loop
      vertex  2.500000e+000  4.330127e+000  1.200000e+001
      vertex  2.500000e+000  4.330127e+000  1.100000e+001
      vertex -9.184850e-016  5.000000e+000  1.200000e+001
    endloop
  endfacet
  facet normal  2.588190e-001  9.659259e-001  0.000000e+000
    outer loop
      vertex -9.184850e-016  5.000000e+000  1.200000e+001
      vertex  2.500000e+000  4.330127e+000  1.100000e+001
      vertex -9.184850e-016  5.000000e+000  1.100000e+001
    endloop
  endfacet
  facet normal -2.588190e-001  9.659259e-001  0.000000e+000
    outer loop
      vertex -9.184850e-016  5.000000e+000  1.200000e+001
      vertex -9.184850e-016  5.000000e+000  1.100000e+001
      vertex -2.500000e+000  4.330127e+000  1.200000e+001
    endloop
  endfacet
  facet normal -2.588190e-001  9.659259e-001  0.000000e+000
    outer loop
      vertex -2.500000e+000  4.330127e+000  1.200000e+001
      vertex -9.184850e-016  5.000000e+000  1.100000e+001
      vertex -2.500000e+000  4.330127e+000  1.100000e+001
    endloop
  endfacet
  facet normal -7.071068e-001  7.071068e-001  0.000000e+000
    outer loop
      vertex -2.500000e+000  4.330127e+000  1.200000e+001
      vertex -2.500000e+000  4.330127e+000  1.100000e+001
      vertex -4.330127e+000  2.500000e+000  1.200000e+001
    endloop
  endfacet
  facet normal -7.071068e-001  7.071068e-001  0.000000e+000
    outer loop
      vertex -4.330127e+000  2.500000e+000  1.200000e+001
      vertex -2.500000e+000  4.330127e+000  1.100000e+001
      vertex -4.330127e+000  2.500000e+000  1.100000e+001
    endloop
  endfacet
  facet normal -9.659259e-001  2.588190e-001  0.000000e+000
    outer loop
      vertex -4.330127e+000  2.500000e+000  1.200000e+001
      vertex -4.330127e+000  2.500000e+000  1.100000e+001
      vertex -5.000000e+000 -6.123234e-016  1.200000e+001
    endloop
  endfacet
  facet normal -9.659259e-001  2.588190e-001  0.000000e+000
    outer loop
      vertex -5.000000e+000 -6.123234e-016  1.200000e+001
      vertex -4.330127e+000  2.500000e+000  1.100000e+001
      vertex -5.000000e+000 -6.123234e-016  1.100000e+001
    endloop
  endfacet
  facet normal -9.659259e-001 -2.588190e-001  0.000000e+000
    outer loop
      vertex -5.000000e+000 -6.123234e-016  1.200000e+001
      vertex -5.000000e+000 -6.123234e-016  1.100000e+001
      vertex -4.330127e+000 -2.500000e+000  1.200000e+001
    endloop
  endfacet
  facet normal -9.659259e-001 -2.588190e-001  -0.000000e+000
    outer loop
      vertex -4.330127e+000 -2.500000e+000  1.200000e+001
      vertex -5.000000e+000 -6.123234e-016  1.100000e+001
      vertex -4.330127e+000 -2.500000e+000  1.100000e+001
    endloop
  endfacet
  facet normal -7.071068e-001 -7.071068e-001  0.000000e+000
    outer loop
      vertex -4.330127e+000 -2.500000e+000  1.200000e+001
      vertex -4.330127e+000 -2.500000e+000  1.100000e+001
      vertex -2.500000e+000 -4.330127e+000  1.200000e+001
    endloop
  endfacet
  facet normal -7.071068e-001 -7.071068e-001  -0.000000e+000
    outer loop
      vertex -2.500000e+000 -4.330127e+000  1.200000e+001
      vertex -4.330127e+000 -2.500000e+000  1.100000e+001
      vertex -2.500000e+000 -4.330127e+000  1.100000e+001
    endloop
  endfacet
  facet normal -2.588190e-001 -9.659259e-001  0.000000e+000
    outer loop
      vertex -2.500000e+000 -4.330127e+000  1.200000e+001
      vertex -2.500000e+000 -4.330127e+000  1.100000e+001
      vertex  3.061617e-016 -5.000000e+000  1.200000e+001
    endloop
  endfacet
  facet normal -2.588190e-001 -9.659259e-001  -0.000000e+000
    outer loop
      vertex  3.061617e-016 -5.000000e+000  1.200000e+001
      vertex -2.500000e+000 -4.330127e+000  1.100000e+001
      vertex  3.061617e-016 -5.000000e+000  1.100000e+001
    endloop
  endfacet
  facet normal  2.588190e-001 -9.659259e-001  0.000000e+000
    outer loop
      vertex  3.061617e-016 -5.000000e+000  1.200000e+001
      vertex  3.061617e-016 -5.000000e+000  1.100000e+001
      vertex  2.500000e+000 -4.330127e+000  1.200000e+001
    endloop
  endfacet
  facet normal  2.588190e-001 -9.659259e-001  0.000000e+000
    outer loop
      vertex  2.500000e+000 -4.330127e+000  1.200000e+001
      vertex  3.061617e-016 -5.000000e+000  1.100000e+001
      vertex  2.500000e+000 -4.330127e+000  1.100000e+001
    endloop
  endfacet
  facet normal  7.071068e-001 -7.071068e-001  0.000000e+000
    outer loop
      vertex  2.500000e+000 -4.330127e+000  1.200000e+001
      vertex  2.500000e+000 -4.330127e+000  1.100000e+001
      vertex  4.330127e+000 -2.500000e+000  1.200000e+001
    endloop
  endfacet
  facet normal  7.071068e-001 -7.071068e-001  0.000000e+000
    outer loop
      vertex  4.330127e+000 -2.500000e+000  1.200000e+001
      vertex  2.500000e+000 -4.330127e+000  1.100000e+001
      vertex  4.330127e+000 -2.500000e+000  1.100000e+001
    endloop
  endfacet
  facet normal  9.659259e-001 -2.588190e-001  0.000000e+000
    outer loop
      vertex  4.330127e+000 -2.500000e+000  1.200000e+001
      vertex  4.330127e+000 -2.500000e+000  1.100000e+001
      vertex  5.000000e+000  0.000000e+000  1.200000e+001
    endloop
  endfacet
  facet normal  9.659259e-001 -2.588190e-001  0.000000e+000
    outer loop
      vertex  5.000000e+000  0.000000e+000  1.200000e+001
      vertex  4.330127e+000 -2.500000e+000  1.100000e+001
      vertex  5.000000e+000  0.000000e+000  1.100000e+001
    endloop
  endfacet
endsolid CATIA STL
