solid CATIA STL
  facet normal -9.848077e-001  1.736483e-001  0.000000e+000
    outer loop
      vertex -1.100000e+001  6.232093e-015  2.000000e+001
      vertex -1.100000e+001  6.232093e-015  2.200000e+001
      vertex -1.033662e+001  3.762222e+000  2.000000e+001
    endloop
  endfacet
  facet normal -9.848077e-001  1.736483e-001  0.000000e+000
    outer loop
      vertex -1.033662e+001  3.762222e+000  2.000000e+001
      vertex -1.100000e+001  6.232093e-015  2.200000e+001
      vertex -1.033662e+001  3.762222e+000  2.200000e+001
    endloop
  endfacet
  facet normal -8.660254e-001  4.999999e-001  0.000000e+000
    outer loop
      vertex -1.033662e+001  3.762222e+000  2.000000e+001
      vertex -1.033662e+001  3.762222e+000  2.200000e+001
      vertex -8.426489e+000  7.070664e+000  2.000000e+001
    endloop
  endfacet
  facet normal -8.660254e-001  4.999999e-001  0.000000e+000
    outer loop
      vertex -8.426489e+000  7.070664e+000  2.000000e+001
      vertex -1.033662e+001  3.762222e+000  2.200000e+001
      vertex -8.426489e+000  7.070664e+000  2.200000e+001
    endloop
  endfacet
  facet normal -6.427875e-001  7.660444e-001  0.000000e+000
    outer loop
      vertex -8.426489e+000  7.070664e+000  2.000000e+001
      vertex -8.426489e+000  7.070664e+000  2.200000e+001
      vertex -5.500000e+000  9.526279e+000  2.000000e+001
    endloop
  endfacet
  facet normal -6.427875e-001  7.660444e-001  0.000000e+000
    outer loop
      vertex -5.500000e+000  9.526279e+000  2.000000e+001
      vertex -8.426489e+000  7.070664e+000  2.200000e+001
      vertex -5.500000e+000  9.526279e+000  2.200000e+001
    endloop
  endfacet
  facet normal -3.420202e-001  9.396926e-001  0.000000e+000
    outer loop
      vertex -5.500000e+000  9.526279e+000  2.000000e+001
      vertex -5.500000e+000  9.526279e+000  2.200000e+001
      vertex -1.910130e+000  1.083289e+001  2.000000e+001
    endloop
  endfacet
  facet normal -3.420202e-001  9.396926e-001  0.000000e+000
    outer loop
      vertex -1.910130e+000  1.083289e+001  2.000000e+001
      vertex -5.500000e+000  9.526279e+000  2.200000e+001
      vertex -1.910130e+000  1.083289e+001  2.200000e+001
    endloop
  endfacet
  facet normal  0.000000e+000  9.999999e-001  0.000000e+000
    outer loop
      vertex -1.910130e+000  1.083289e+001  2.000000e+001
      vertex -1.910130e+000  1.083289e+001  2.200000e+001
      vertex  1.910130e+000  1.083289e+001  2.000000e+001
    endloop
  endfacet
  facet normal  0.000000e+000  9.999999e-001  -0.000000e+000
    outer loop
      vertex  1.910130e+000  1.083289e+001  2.000000e+001
      vertex -1.910130e+000  1.083289e+001  2.200000e+001
      vertex  1.910130e+000  1.083289e+001  2.200000e+001
    endloop
  endfacet
  facet normal  3.420202e-001  9.396926e-001  0.000000e+000
    outer loop
      vertex  1.910130e+000  1.083289e+001  2.000000e+001
      vertex  1.910130e+000  1.083289e+001  2.200000e+001
      vertex  5.500000e+000  9.526279e+000  2.000000e+001
    endloop
  endfacet
  facet normal  3.420202e-001  9.396926e-001  -0.000000e+000
    outer loop
      vertex  5.500000e+000  9.526279e+000  2.000000e+001
      vertex  1.910130e+000  1.083289e+001  2.200000e+001
      vertex  5.500000e+000  9.526279e+000  2.200000e+001
    endloop
  endfacet
  facet normal  6.427875e-001  7.660444e-001  0.000000e+000
    outer loop
      vertex  5.500000e+000  9.526279e+000  2.000000e+001
      vertex  5.500000e+000  9.526279e+000  2.200000e+001
      vertex  8.426489e+000  7.070664e+000  2.000000e+001
    endloop
  endfacet
  facet normal  6.427875e-001  7.660444e-001  -0.000000e+000
    outer loop
      vertex  8.426489e+000  7.070664e+000  2.000000e+001
      vertex  5.500000e+000  9.526279e+000  2.200000e+001
      vertex  8.426489e+000  7.070664e+000  2.200000e+001
    endloop
  endfacet
  facet normal  8.660254e-001  4.999999e-001  0.000000e+000
    outer loop
      vertex  8.426489e+000  7.070664e+000  2.000000e+001
      vertex  8.426489e+000  7.070664e+000  2.200000e+001
      vertex  1.033662e+001  3.762222e+000  2.000000e+001
    endloop
  endfacet
  facet normal  8.660254e-001  4.999999e-001  -0.000000e+000
    outer loop
      vertex  1.033662e+001  3.762222e+000  2.000000e+001
      vertex  8.426489e+000  7.070664e+000  2.200000e+001
      vertex  1.033662e+001  3.762222e+000  2.200000e+001
    endloop
  endfacet
  facet normal  9.848077e-001  1.736483e-001  0.000000e+000
    outer loop
      vertex  1.033662e+001  3.762222e+000  2.000000e+001
      vertex  1.033662e+001  3.762222e+000  2.200000e+001
      vertex  1.100000e+001  0.000000e+000  2.000000e+001
    endloop
  endfacet
  facet normal  9.848077e-001  1.736483e-001  -0.000000e+000
    outer loop
      vertex  1.100000e+001  0.000000e+000  2.000000e+001
      vertex  1.033662e+001  3.762222e+000  2.200000e+001
      vertex  1.100000e+001  0.000000e+000  2.200000e+001
    endloop
  endfacet
  facet normal  9.848077e-001 -1.736483e-001  0.000000e+000
    outer loop
      vertex  1.100000e+001  0.000000e+000  2.000000e+001
      vertex  1.100000e+001  0.000000e+000  2.200000e+001
      vertex  1.033662e+001 -3.762222e+000  2.000000e+001
    endloop
  endfacet
  facet normal  9.848077e-001 -1.736483e-001  0.000000e+000
    outer loop
      vertex  1.033662e+001 -3.762222e+000  2.000000e+001
      vertex  1.100000e+001  0.000000e+000  2.200000e+001
      vertex  1.033662e+001 -3.762222e+000  2.200000e+001
    endloop
  endfacet
  facet normal  8.660254e-001 -4.999999e-001  0.000000e+000
    outer loop
      vertex  1.033662e+001 -3.762222e+000  2.000000e+001
      vertex  1.033662e+001 -3.762222e+000  2.200000e+001
      vertex  8.426489e+000 -7.070664e+000  2.000000e+001
    endloop
  endfacet
  facet normal  8.660254e-001 -4.999999e-001  0.000000e+000
    outer loop
      vertex  8.426489e+000 -7.070664e+000  2.000000e+001
      vertex  1.033662e+001 -3.762222e+000  2.200000e+001
      vertex  8.426489e+000 -7.070664e+000  2.200000e+001
    endloop
  endfacet
  facet normal  6.427875e-001 -7.660444e-001  0.000000e+000
    outer loop
      vertex  8.426489e+000 -7.070664e+000  2.000000e+001
      vertex  8.426489e+000 -7.070664e+000  2.200000e+001
      vertex  5.500000e+000 -9.526279e+000  2.000000e+001
    endloop
  endfacet
  facet normal  6.427875e-001 -7.660444e-001  0.000000e+000
    outer loop
      vertex  5.500000e+000 -9.526279e+000  2.000000e+001
      vertex  8.426489e+000 -7.070664e+000  2.200000e+001
      vertex  5.500000e+000 -9.526279e+000  2.200000e+001
    endloop
  endfacet
  facet normal  3.420202e-001 -9.396926e-001  0.000000e+000
    outer loop
      vertex  5.500000e+000 -9.526279e+000  2.000000e+001
      vertex  5.500000e+000 -9.526279e+000  2.200000e+001
      vertex  1.910130e+000 -1.083289e+001  2.000000e+001
    endloop
  endfacet
  facet normal  3.420202e-001 -9.396926e-001  0.000000e+000
    outer loop
      vertex  1.910130e+000 -1.083289e+001  2.000000e+001
      vertex  5.500000e+000 -9.526279e+000  2.200000e+001
      vertex  1.910130e+000 -1.083289e+001  2.200000e+001
    endloop
  endfacet
  facet normal  0.000000e+000 -9.999999e-001  -0.000000e+000
    outer loop
      vertex  1.910130e+000 -1.083289e+001  2.000000e+001
      vertex  1.910130e+000 -1.083289e+001  2.200000e+001
      vertex -1.910130e+000 -1.083289e+001  2.000000e+001
    endloop
  endfacet
  facet normal  0.000000e+000 -9.999999e-001  0.000000e+000
    outer loop
      vertex -1.910130e+000 -1.083289e+001  2.000000e+001
      vertex  1.910130e+000 -1.083289e+001  2.200000e+001
      vertex -1.910130e+000 -1.083289e+001  2.200000e+001
    endloop
  endfacet
  facet normal -3.420202e-001 -9.396926e-001  -0.000000e+000
    outer loop
      vertex -1.910130e+000 -1.083289e+001  2.000000e+001
      vertex -1.910130e+000 -1.083289e+001  2.200000e+001
      vertex -5.500000e+000 -9.526279e+000  2.000000e+001
    endloop
  endfacet
  facet normal -3.420202e-001 -9.396926e-001  0.000000e+000
    outer loop
      vertex -5.500000e+000 -9.526279e+000  2.000000e+001
      vertex -1.910130e+000 -1.083289e+001  2.200000e+001
      vertex -5.500000e+000 -9.526279e+000  2.200000e+001
    endloop
  endfacet
  facet normal -6.427875e-001 -7.660444e-001  -0.000000e+000
    outer loop
      vertex -5.500000e+000 -9.526279e+000  2.000000e+001
      vertex -5.500000e+000 -9.526279e+000  2.200000e+001
      vertex -8.426489e+000 -7.070664e+000  2.000000e+001
    endloop
  endfacet
  facet normal -6.427875e-001 -7.660444e-001  0.000000e+000
    outer loop
      vertex -8.426489e+000 -7.070664e+000  2.000000e+001
      vertex -5.500000e+000 -9.526279e+000  2.200000e+001
      vertex -8.426489e+000 -7.070664e+000  2.200000e+001
    endloop
  endfacet
  facet normal -8.660254e-001 -4.999999e-001  -0.000000e+000
    outer loop
      vertex -8.426489e+000 -7.070664e+000  2.000000e+001
      vertex -8.426489e+000 -7.070664e+000  2.200000e+001
      vertex -1.033662e+001 -3.762222e+000  2.000000e+001
    endloop
  endfacet
  facet normal -8.660254e-001 -4.999999e-001  0.000000e+000
    outer loop
      vertex -1.033662e+001 -3.762222e+000  2.000000e+001
      vertex -8.426489e+000 -7.070664e+000  2.200000e+001
      vertex -1.033662e+001 -3.762222e+000  2.200000e+001
    endloop
  endfacet
  facet normal -9.848077e-001 -1.736483e-001  -0.000000e+000
    outer loop
      vertex -1.033662e+001 -3.762222e+000  2.000000e+001
      vertex -1.033662e+001 -3.762222e+000  2.200000e+001
      vertex -1.100000e+001  6.232093e-015  2.000000e+001
    endloop
  endfacet
  facet normal -9.848077e-001 -1.736483e-001  0.000000e+000
    outer loop
      vertex -1.100000e+001  6.232093e-015  2.000000e+001
      vertex -1.033662e+001 -3.762222e+000  2.200000e+001
      vertex -1.100000e+001  6.232093e-015  2.200000e+001
    endloop
  endfacet
  facet normal  0.000000e+000  0.000000e+000 -1.000000e+000
    outer loop
      vertex  1.100000e+001  0.000000e+000  2.000000e+001
      vertex -1.033662e+001  3.762222e+000  2.000000e+001
      vertex  1.033662e+001  3.762222e+000  2.000000e+001
    endloop
  endfacet
  facet normal  0.000000e+000  0.000000e+000 -1.000000e+000
    outer loop
      vertex  1.033662e+001  3.762222e+000  2.000000e+001
      vertex -1.033662e+001  3.762222e+000  2.000000e+001
      vertex -8.426489e+000  7.070664e+000  2.000000e+001
    endloop
  endfacet
  facet normal  0.000000e+000  0.000000e+000 -1.000000e+000
    outer loop
      vertex  1.033662e+001  3.762222e+000  2.000000e+001
      vertex -8.426489e+000  7.070664e+000  2.000000e+001
      vertex  8.426489e+000  7.070664e+000  2.000000e+001
    endloop
  endfacet
  facet normal  0.000000e+000  0.000000e+000 -1.000000e+000
    outer loop
      vertex  8.426489e+000  7.070664e+000  2.000000e+001
      vertex -8.426489e+000  7.070664e+000  2.000000e+001
      vertex -5.500000e+000  9.526279e+000  2.000000e+001
    endloop
  endfacet
  facet normal  0.000000e+000  0.000000e+000 -1.000000e+000
    outer loop
      vertex  8.426489e+000  7.070664e+000  2.000000e+001
      vertex -5.500000e+000  9.526279e+000  2.000000e+001
      vertex  5.500000e+000  9.526279e+000  2.000000e+001
    endloop
  endfacet
  facet normal  0.000000e+000  0.000000e+000 -1.000000e+000
    outer loop
      vertex  5.500000e+000  9.526279e+000  2.000000e+001
      vertex -5.500000e+000  9.526279e+000  2.000000e+001
      vertex -1.910130e+000  1.083289e+001  2.000000e+001
    endloop
  endfacet
  facet normal  0.000000e+000  0.000000e+000 -1.000000e+000
    outer loop
      vertex  5.500000e+000  9.526279e+000  2.000000e+001
      vertex -1.910130e+000  1.083289e+001  2.000000e+001
      vertex  1.910130e+000  1.083289e+001  2.000000e+001
    endloop
  endfacet
  facet normal  0.000000e+000  0.000000e+000 -1.000000e+000
    outer loop
      vertex -1.033662e+001  3.762222e+000  2.000000e+001
      vertex  1.100000e+001  0.000000e+000  2.000000e+001
      vertex -1.100000e+001  6.232093e-015  2.000000e+001
    endloop
  endfacet
  facet normal  0.000000e+000  0.000000e+000 -1.000000e+000
    outer loop
      vertex -1.100000e+001  6.232093e-015  2.000000e+001
      vertex  1.100000e+001  0.000000e+000  2.000000e+001
      vertex  1.033662e+001 -3.762222e+000  2.000000e+001
    endloop
  endfacet
  facet normal  0.000000e+000  0.000000e+000 -1.000000e+000
    outer loop
      vertex -1.100000e+001  6.232093e-015  2.000000e+001
      vertex  1.033662e+001 -3.762222e+000  2.000000e+001
      vertex -1.033662e+001 -3.762222e+000  2.000000e+001
    endloop
  endfacet
  facet normal  0.000000e+000  0.000000e+000 -1.000000e+000
    outer loop
      vertex -1.033662e+001 -3.762222e+000  2.000000e+001
      vertex  1.033662e+001 -3.762222e+000  2.000000e+001
      vertex  8.426489e+000 -7.070664e+000  2.000000e+001
    endloop
  endfacet
  facet normal  0.000000e+000  0.000000e+000 -1.000000e+000
    outer loop
      vertex -1.033662e+001 -3.762222e+000  2.000000e+001
      vertex  8.426489e+000 -7.070664e+000  2.000000e+001
      vertex -8.426489e+000 -7.070664e+000  2.000000e+001
    endloop
  endfacet
  facet normal  0.000000e+000  0.000000e+000 -1.000000e+000
    outer loop
      vertex -8.426489e+000 -7.070664e+000  2.000000e+001
      vertex  8.426489e+000 -7.070664e+000  2.000000e+001
      vertex  5.500000e+000 -9.526279e+000  2.000000e+001
    endloop
  endfacet
  facet normal  0.000000e+000  0.000000e+000 -1.000000e+000
    outer loop
      vertex -8.426489e+000 -7.070664e+000  2.000000e+001
      vertex  5.500000e+000 -9.526279e+000  2.000000e+001
      vertex -5.500000e+000 -9.526279e+000  2.000000e+001
    endloop
  endfacet
  facet normal  0.000000e+000  0.000000e+000 -1.000000e+000
    outer loop
      vertex -5.500000e+000 -9.526279e+000  2.000000e+001
      vertex  5.500000e+000 -9.526279e+000  2.000000e+001
      vertex  1.910130e+000 -1.083289e+001  2.000000e+001
    endloop
  endfacet
  facet normal  0.000000e+000  0.000000e+000 -1.000000e+000
    outer loop
      vertex -5.500000e+000 -9.526279e+000  2.000000e+001
      vertex  1.910130e+000 -1.083289e+001  2.000000e+001
      vertex -1.910130e+000 -1.083289e+001  2.000000e+001
    endloop
  endfacet
  facet normal  0.000000e+000  0.000000e+000  9.999999e-001
    outer loop
      vertex -9.184850e-016  5.000000e+000  2.200000e+001
      vertex -5.500000e+000  9.526279e+000  2.200000e+001
      vertex -8.426489e+000  7.070664e+000  2.200000e+001
    endloop
  endfacet
  facet normal  0.000000e+000  0.000000e+000  1.000000e+000
    outer loop
      vertex  5.500000e+000 -9.526279e+000  2.200000e+001
      vertex  8.426489e+000 -7.070664e+000  2.200000e+001
      vertex  1.910130e+000 -1.083289e+001  2.200000e+001
    endloop
  endfacet
  facet normal  0.000000e+000  -0.000000e+000  1.000000e+000
    outer loop
      vertex  1.910130e+000 -1.083289e+001  2.200000e+001
      vertex  8.426489e+000 -7.070664e+000  2.200000e+001
      vertex  3.061617e-016 -5.000000e+000  2.200000e+001
    endloop
  endfacet
  facet normal  0.000000e+000  0.000000e+000  1.000000e+000
    outer loop
      vertex  1.910130e+000 -1.083289e+001  2.200000e+001
      vertex  3.061617e-016 -5.000000e+000  2.200000e+001
      vertex -1.910130e+000 -1.083289e+001  2.200000e+001
    endloop
  endfacet
  facet normal  0.000000e+000  -0.000000e+000  1.000000e+000
    outer loop
      vertex -1.910130e+000 -1.083289e+001  2.200000e+001
      vertex  3.061617e-016 -5.000000e+000  2.200000e+001
      vertex -8.426489e+000 -7.070664e+000  2.200000e+001
    endloop
  endfacet
  facet normal  0.000000e+000  0.000000e+000  1.000000e+000
    outer loop
      vertex -1.910130e+000 -1.083289e+001  2.200000e+001
      vertex -8.426489e+000 -7.070664e+000  2.200000e+001
      vertex -5.500000e+000 -9.526279e+000  2.200000e+001
    endloop
  endfacet
  facet normal  0.000000e+000  0.000000e+000  9.999999e-001
    outer loop
      vertex  8.426489e+000  7.070664e+000  2.200000e+001
      vertex  5.500000e+000  9.526279e+000  2.200000e+001
      vertex -9.184850e-016  5.000000e+000  2.200000e+001
    endloop
  endfacet
  facet normal  0.000000e+000  0.000000e+000  9.999999e-001
    outer loop
      vertex -9.184850e-016  5.000000e+000  2.200000e+001
      vertex  5.500000e+000  9.526279e+000  2.200000e+001
      vertex  1.910130e+000  1.083289e+001  2.200000e+001
    endloop
  endfacet
  facet normal  0.000000e+000  0.000000e+000  1.000000e+000
    outer loop
      vertex -9.184850e-016  5.000000e+000  2.200000e+001
      vertex  1.910130e+000  1.083289e+001  2.200000e+001
      vertex -5.500000e+000  9.526279e+000  2.200000e+001
    endloop
  endfacet
  facet normal  0.000000e+000  0.000000e+000  1.000000e+000
    outer loop
      vertex -5.500000e+000  9.526279e+000  2.200000e+001
      vertex  1.910130e+000  1.083289e+001  2.200000e+001
      vertex -1.910130e+000  1.083289e+001  2.200000e+001
    endloop
  endfacet
  facet normal  0.000000e+000  0.000000e+000  1.000000e+000
    outer loop
      vertex -9.184850e-016  5.000000e+000  2.200000e+001
      vertex -8.426489e+000  7.070664e+000  2.200000e+001
      vertex -2.500000e+000  4.330127e+000  2.200000e+001
    endloop
  endfacet
  facet normal  0.000000e+000  0.000000e+000  1.000000e+000
    outer loop
      vertex -2.500000e+000  4.330127e+000  2.200000e+001
      vertex -8.426489e+000  7.070664e+000  2.200000e+001
      vertex -1.033662e+001  3.762222e+000  2.200000e+001
    endloop
  endfacet
  facet normal  -0.000000e+000  0.000000e+000  9.999999e-001
    outer loop
      vertex -2.500000e+000  4.330127e+000  2.200000e+001
      vertex -1.033662e+001  3.762222e+000  2.200000e+001
      vertex -4.330127e+000  2.500000e+000  2.200000e+001
    endloop
  endfacet
  facet normal  0.000000e+000  0.000000e+000  1.000000e+000
    outer loop
      vertex -4.330127e+000  2.500000e+000  2.200000e+001
      vertex -1.033662e+001  3.762222e+000  2.200000e+001
      vertex -1.100000e+001  6.232093e-015  2.200000e+001
    endloop
  endfacet
  facet normal  -0.000000e+000  0.000000e+000  1.000000e+000
    outer loop
      vertex -4.330127e+000  2.500000e+000  2.200000e+001
      vertex -1.100000e+001  6.232093e-015  2.200000e+001
      vertex -5.000000e+000 -6.123234e-016  2.200000e+001
    endloop
  endfacet
  facet normal  0.000000e+000  0.000000e+000  1.000000e+000
    outer loop
      vertex -5.000000e+000 -6.123234e-016  2.200000e+001
      vertex -1.100000e+001  6.232093e-015  2.200000e+001
      vertex -4.330127e+000 -2.500000e+000  2.200000e+001
    endloop
  endfacet
  facet normal  0.000000e+000  0.000000e+000  1.000000e+000
    outer loop
      vertex -4.330127e+000 -2.500000e+000  2.200000e+001
      vertex -1.100000e+001  6.232093e-015  2.200000e+001
      vertex -1.033662e+001 -3.762222e+000  2.200000e+001
    endloop
  endfacet
  facet normal  -0.000000e+000  0.000000e+000  9.999999e-001
    outer loop
      vertex -4.330127e+000 -2.500000e+000  2.200000e+001
      vertex -1.033662e+001 -3.762222e+000  2.200000e+001
      vertex -2.500000e+000 -4.330127e+000  2.200000e+001
    endloop
  endfacet
  facet normal  0.000000e+000  0.000000e+000  9.999999e-001
    outer loop
      vertex -8.426489e+000 -7.070664e+000  2.200000e+001
      vertex  3.061617e-016 -5.000000e+000  2.200000e+001
      vertex -1.033662e+001 -3.762222e+000  2.200000e+001
    endloop
  endfacet
  facet normal  0.000000e+000  0.000000e+000  1.000000e+000
    outer loop
      vertex -1.033662e+001 -3.762222e+000  2.200000e+001
      vertex  3.061617e-016 -5.000000e+000  2.200000e+001
      vertex -2.500000e+000 -4.330127e+000  2.200000e+001
    endloop
  endfacet
  facet normal  -0.000000e+000  0.000000e+000  9.999999e-001
    outer loop
      vertex  8.426489e+000  7.070664e+000  2.200000e+001
      vertex -9.184850e-016  5.000000e+000  2.200000e+001
      vertex  1.033662e+001  3.762222e+000  2.200000e+001
    endloop
  endfacet
  facet normal  0.000000e+000  0.000000e+000  1.000000e+000
    outer loop
      vertex  1.033662e+001  3.762222e+000  2.200000e+001
      vertex -9.184850e-016  5.000000e+000  2.200000e+001
      vertex  2.500000e+000  4.330127e+000  2.200000e+001
    endloop
  endfacet
  facet normal  0.000000e+000  0.000000e+000  1.000000e+000
    outer loop
      vertex  1.033662e+001  3.762222e+000  2.200000e+001
      vertex  2.500000e+000  4.330127e+000  2.200000e+001
      vertex  1.100000e+001  0.000000e+000  2.200000e+001
    endloop
  endfacet
  facet normal  0.000000e+000  0.000000e+000  1.000000e+000
    outer loop
      vertex  1.100000e+001  0.000000e+000  2.200000e+001
      vertex  2.500000e+000  4.330127e+000  2.200000e+001
      vertex  4.330127e+000  2.500000e+000  2.200000e+001
    endloop
  endfacet
  facet normal  0.000000e+000  0.000000e+000  1.000000e+000
    outer loop
      vertex  1.100000e+001  0.000000e+000  2.200000e+001
      vertex  4.330127e+000  2.500000e+000  2.200000e+001
      vertex  5.000000e+000  0.000000e+000  2.200000e+001
    endloop
  endfacet
  facet normal  -0.000000e+000  0.000000e+000  1.000000e+000
    outer loop
      vertex  1.100000e+001  0.000000e+000  2.200000e+001
      vertex  5.000000e+000  0.000000e+000  2.200000e+001
      vertex  1.033662e+001 -3.762222e+000  2.200000e+001
    endloop
  endfacet
  facet normal  0.000000e+000  0.000000e+000  1.000000e+000
    outer loop
      vertex  1.033662e+001 -3.762222e+000  2.200000e+001
      vertex  5.000000e+000  0.000000e+000  2.200000e+001
      vertex  4.330127e+000 -2.500000e+000  2.200000e+001
    endloop
  endfacet
  facet normal  0.000000e+000  0.000000e+000  9.999999e-001
    outer loop
      vertex  1.033662e+001 -3.762222e+000  2.200000e+001
      vertex  4.330127e+000 -2.500000e+000  2.200000e+001
      vertex  2.500000e+000 -4.330127e+000  2.200000e+001
    endloop
  endfacet
  facet normal  0.000000e+000  0.000000e+000  1.000000e+000
    outer loop
      vertex  2.500000e+000 -4.330127e+000  2.200000e+001
      vertex  3.061617e-016 -5.000000e+000  2.200000e+001
      vertex  1.033662e+001 -3.762222e+000  2.200000e+001
    endloop
  endfacet
  facet normal  0.000000e+000  0.000000e+000  1.000000e+000
    outer loop
      vertex  1.033662e+001 -3.762222e+000  2.200000e+001
      vertex  3.061617e-016 -5.000000e+000  2.200000e+001
      vertex  8.426489e+000 -7.070664e+000  2.200000e+001
    endloop
  endfacet
  facet normal  0.000000e+000  0.000000e+000  1.000000e+000
    outer loop
      vertex  3.061617e-016 -5.000000e+000  2.300000e+001
      vertex  2.500000e+000 -4.330127e+000  2.300000e+001
      vertex -2.500000e+000 -4.330127e+000  2.300000e+001
    endloop
  endfacet
  facet normal  0.000000e+000  0.000000e+000  1.000000e+000
    outer loop
      vertex -9.184850e-016  5.000000e+000  2.300000e+001
      vertex -2.500000e+000  4.330127e+000  2.300000e+001
      vertex  2.500000e+000  4.330127e+000  2.300000e+001
    endloop
  endfacet
  facet normal  0.000000e+000  0.000000e+000  1.000000e+000
    outer loop
      vertex  2.500000e+000  4.330127e+000  2.300000e+001
      vertex -2.500000e+000  4.330127e+000  2.300000e+001
      vertex -4.330127e+000  2.500000e+000  2.300000e+001
    endloop
  endfacet
  facet normal  0.000000e+000  0.000000e+000  1.000000e+000
    outer loop
      vertex  2.500000e+000  4.330127e+000  2.300000e+001
      vertex -4.330127e+000  2.500000e+000  2.300000e+001
      vertex  4.330127e+000  2.500000e+000  2.300000e+001
    endloop
  endfacet
  facet normal  0.000000e+000  0.000000e+000  1.000000e+000
    outer loop
      vertex  4.330127e+000  2.500000e+000  2.300000e+001
      vertex -4.330127e+000  2.500000e+000  2.300000e+001
      vertex -5.000000e+000 -6.123234e-016  2.300000e+001
    endloop
  endfacet
  facet normal  0.000000e+000  0.000000e+000  1.000000e+000
    outer loop
      vertex  4.330127e+000  2.500000e+000  2.300000e+001
      vertex -5.000000e+000 -6.123234e-016  2.300000e+001
      vertex  5.000000e+000  0.000000e+000  2.300000e+001
    endloop
  endfacet
  facet normal  0.000000e+000  0.000000e+000  1.000000e+000
    outer loop
      vertex  5.000000e+000  0.000000e+000  2.300000e+001
      vertex -5.000000e+000 -6.123234e-016  2.300000e+001
      vertex -4.330127e+000 -2.500000e+000  2.300000e+001
    endloop
  endfacet
  facet normal  0.000000e+000  0.000000e+000  1.000000e+000
    outer loop
      vertex  5.000000e+000  0.000000e+000  2.300000e+001
      vertex -4.330127e+000 -2.500000e+000  2.300000e+001
      vertex  4.330127e+000 -2.500000e+000  2.300000e+001
    endloop
  endfacet
  facet normal  0.000000e+000  0.000000e+000  1.000000e+000
    outer loop
      vertex  4.330127e+000 -2.500000e+000  2.300000e+001
      vertex -4.330127e+000 -2.500000e+000  2.300000e+001
      vertex -2.500000e+000 -4.330127e+000  2.300000e+001
    endloop
  endfacet
  facet normal  0.000000e+000  0.000000e+000  1.000000e+000
    outer loop
      vertex  4.330127e+000 -2.500000e+000  2.300000e+001
      vertex -2.500000e+000 -4.330127e+000  2.300000e+001
      vertex  2.500000e+000 -4.330127e+000  2.300000e+001
    endloop
  endfacet
  facet normal  9.659259e-001  2.588190e-001  -0.000000e+000
    outer loop
      vertex  5.000000e+000  0.000000e+000  2.300000e+001
      vertex  5.000000e+000  0.000000e+000  2.200000e+001
      vertex  4.330127e+000  2.500000e+000  2.300000e+001
    endloop
  endfacet
  facet normal  9.659259e-001  2.588190e-001  0.000000e+000
    outer loop
      vertex  4.330127e+000  2.500000e+000  2.300000e+001
      vertex  5.000000e+000  0.000000e+000  2.200000e+001
      vertex  4.330127e+000  2.500000e+000  2.200000e+001
    endloop
  endfacet
  facet normal  7.071068e-001  7.071068e-001  -0.000000e+000
    outer loop
      vertex  4.330127e+000  2.500000e+000  2.300000e+001
      vertex  4.330127e+000  2.500000e+000  2.200000e+001
      vertex  2.500000e+000  4.330127e+000  2.300000e+001
    endloop
  endfacet
  facet normal  7.071068e-001  7.071068e-001  0.000000e+000
    outer loop
      vertex  2.500000e+000  4.330127e+000  2.300000e+001
      vertex  4.330127e+000  2.500000e+000  2.200000e+001
      vertex  2.500000e+000  4.330127e+000  2.200000e+001
    endloop
  endfacet
  facet normal  2.588190e-001  9.659259e-001  -0.000000e+000
    outer loop
      vertex  2.500000e+000  4.330127e+000  2.300000e+001
      vertex  2.500000e+000  4.330127e+000  2.200000e+001
      vertex -9.184850e-016  5.000000e+000  2.300000e+001
    endloop
  endfacet
  facet normal  2.588190e-001  9.659259e-001  0.000000e+000
    outer loop
      vertex -9.184850e-016  5.000000e+000  2.300000e+001
      vertex  2.500000e+000  4.330127e+000  2.200000e+001
      vertex -9.184850e-016  5.000000e+000  2.200000e+001
    endloop
  endfacet
  facet normal -2.588190e-001  9.659259e-001  0.000000e+000
    outer loop
      vertex -9.184850e-016  5.000000e+000  2.300000e+001
      vertex -9.184850e-016  5.000000e+000  2.200000e+001
      vertex -2.500000e+000  4.330127e+000  2.300000e+001
    endloop
  endfacet
  facet normal -2.588190e-001  9.659259e-001  0.000000e+000
    outer loop
      vertex -2.500000e+000  4.330127e+000  2.300000e+001
      vertex -9.184850e-016  5.000000e+000  2.200000e+001
      vertex -2.500000e+000  4.330127e+000  2.200000e+001
    endloop
  endfacet
  facet normal -7.071068e-001  7.071068e-001  0.000000e+000
    outer loop
      vertex -2.500000e+000  4.330127e+000  2.300000e+001
      vertex -2.500000e+000  4.330127e+000  2.200000e+001
      vertex -4.330127e+000  2.500000e+000  2.300000e+001
    endloop
  endfacet
  facet normal -7.071068e-001  7.071068e-001  0.000000e+000
    outer loop
      vertex -4.330127e+000  2.500000e+000  2.300000e+001
      vertex -2.500000e+000  4.330127e+000  2.200000e+001
      vertex -4.330127e+000  2.500000e+000  2.200000e+001
    endloop
  endfacet
  facet normal -9.659259e-001  2.588190e-001  0.000000e+000
    outer loop
      vertex -4.330127e+000  2.500000e+000  2.300000e+001
      vertex -4.330127e+000  2.500000e+000  2.200000e+001
      vertex -5.000000e+000 -6.123234e-016  2.300000e+001
    endloop
  endfacet
  facet normal -9.659259e-001  2.588190e-001  0.000000e+000
    outer loop
      vertex -5.000000e+000 -6.123234e-016  2.300000e+001
      vertex -4.330127e+000  2.500000e+000  2.200000e+001
      vertex -5.000000e+000 -6.123234e-016  2.200000e+001
    endloop
  endfacet
  facet normal -9.659259e-001 -2.588190e-001  0.000000e+000
    outer loop
      vertex -5.000000e+000 -6.123234e-016  2.300000e+001
      vertex -5.000000e+000 -6.123234e-016  2.200000e+001
      vertex -4.330127e+000 -2.500000e+000  2.300000e+001
    endloop
  endfacet
  facet normal -9.659259e-001 -2.588190e-001  -0.000000e+000
    outer loop
      vertex -4.330127e+000 -2.500000e+000  2.300000e+001
      vertex -5.000000e+000 -6.123234e-016  2.200000e+001
      vertex -4.330127e+000 -2.500000e+000  2.200000e+001
    endloop
  endfacet
  facet normal -7.071068e-001 -7.071068e-001  0.000000e+000
    outer loop
      vertex -4.330127e+000 -2.500000e+000  2.300000e+001
      vertex -4.330127e+000 -2.500000e+000  2.200000e+001
      vertex -2.500000e+000 -4.330127e+000  2.300000e+001
    endloop
  endfacet
  facet normal -7.071068e-001 -7.071068e-001  -0.000000e+000
    outer loop
      vertex -2.500000e+000 -4.330127e+000  2.300000e+001
      vertex -4.330127e+000 -2.500000e+000  2.200000e+001
      vertex -2.500000e+000 -4.330127e+000  2.200000e+001
    endloop
  endfacet
  facet normal -2.588190e-001 -9.659259e-001  0.000000e+000
    outer loop
      vertex -2.500000e+000 -4.330127e+000  2.300000e+001
      vertex -2.500000e+000 -4.330127e+000  2.200000e+001
      vertex  3.061617e-016 -5.000000e+000  2.300000e+001
    endloop
  endfacet
  facet normal -2.588190e-001 -9.659259e-001  -0.000000e+000
    outer loop
      vertex  3.061617e-016 -5.000000e+000  2.300000e+001
      vertex -2.500000e+000 -4.330127e+000  2.200000e+001
      vertex  3.061617e-016 -5.000000e+000  2.200000e+001
    endloop
  endfacet
  facet normal  2.588190e-001 -9.659259e-001  0.000000e+000
    outer loop
      vertex  3.061617e-016 -5.000000e+000  2.300000e+001
      vertex  3.061617e-016 -5.000000e+000  2.200000e+001
      vertex  2.500000e+000 -4.330127e+000  2.300000e+001
    endloop
  endfacet
  facet normal  2.588190e-001 -9.659259e-001  0.000000e+000
    outer loop
      vertex  2.500000e+000 -4.330127e+000  2.300000e+001
      vertex  3.061617e-016 -5.000000e+000  2.200000e+001
      vertex  2.500000e+000 -4.330127e+000  2.200000e+001
    endloop
  endfacet
  facet normal  7.071068e-001 -7.071068e-001  0.000000e+000
    outer loop
      vertex  2.500000e+000 -4.330127e+000  2.300000e+001
      vertex  2.500000e+000 -4.330127e+000  2.200000e+001
      vertex  4.330127e+000 -2.500000e+000  2.300000e+001
    endloop
  endfacet
  facet normal  7.071068e-001 -7.071068e-001  0.000000e+000
    outer loop
      vertex  4.330127e+000 -2.500000e+000  2.300000e+001
      vertex  2.500000e+000 -4.330127e+000  2.200000e+001
      vertex  4.330127e+000 -2.500000e+000  2.200000e+001
    endloop
  endfacet
  facet normal  9.659259e-001 -2.588190e-001  0.000000e+000
    outer loop
      vertex  4.330127e+000 -2.500000e+000  2.300000e+001
      vertex  4.330127e+000 -2.500000e+000  2.200000e+001
      vertex  5.000000e+000  0.000000e+000  2.300000e+001
    endloop
  endfacet
  facet normal  9.659259e-001 -2.588190e-001  0.000000e+000
    outer loop
      vertex  5.000000e+000  0.000000e+000  2.300000e+001
      vertex  4.330127e+000 -2.500000e+000  2.200000e+001
      vertex  5.000000e+000  0.000000e+000  2.200000e+001
    endloop
  endfacet
endsolid CATIA STL
